<svg width="25" height="25" viewBox="0 0 25 25" fill="none" xmlns="http://www.w3.org/2000/svg">
<g id="ticket 1" clip-path="url(#clip0_652_2798)">
<path id="Vector" d="M16.2688 0.548218H16.1388C15.6913 0.55247 15.2578 0.705231 14.9065 0.982517C14.5552 1.2598 14.3059 1.64591 14.1978 2.08022C14.082 2.50306 13.8305 2.87614 13.482 3.14207C13.1335 3.408 12.7072 3.55205 12.2688 3.55205C11.8304 3.55205 11.4041 3.408 11.0556 3.14207C10.7071 2.87614 10.4556 2.50306 10.3398 2.08022C10.2317 1.64591 9.98242 1.2598 9.6311 0.982517C9.27979 0.705231 8.84634 0.55247 8.3988 0.548218L8.2688 0.548218C6.9432 0.549806 5.67236 1.0771 4.73502 2.01444C3.79768 2.95178 3.27039 4.22262 3.2688 5.54822V21.5482C3.2688 22.3439 3.58487 23.1069 4.14748 23.6695C4.71009 24.2321 5.47315 24.5482 6.2688 24.5482H8.3988C8.84634 24.544 9.27979 24.3912 9.6311 24.1139C9.98242 23.8366 10.2317 23.4505 10.3398 23.0162C10.4556 22.5934 10.7071 22.2203 11.0556 21.9544C11.4041 21.6884 11.8304 21.5444 12.2688 21.5444C12.7072 21.5444 13.1335 21.6884 13.482 21.9544C13.8305 22.2203 14.082 22.5934 14.1978 23.0162C14.3059 23.4505 14.5552 23.8366 14.9065 24.1139C15.2578 24.3912 15.6913 24.544 16.1388 24.5482H18.2688C19.0644 24.5482 19.8275 24.2321 20.3901 23.6695C20.9527 23.1069 21.2688 22.3439 21.2688 21.5482V5.54822C21.2672 4.22262 20.7399 2.95178 19.8026 2.01444C18.8652 1.0771 17.5944 0.549806 16.2688 0.548218ZM18.2688 22.5482L16.1258 22.4852C15.8909 21.6366 15.3826 20.8893 14.6797 20.359C13.9768 19.8287 13.1186 19.5452 12.2381 19.5524C11.3577 19.5596 10.5042 19.857 9.81002 20.3987C9.11585 20.9404 8.61981 21.6959 8.3988 22.5482H6.2688C6.00358 22.5482 5.74923 22.4429 5.56169 22.2553C5.37416 22.0678 5.2688 21.8134 5.2688 21.5482V17.5482H7.2688C7.53401 17.5482 7.78837 17.4429 7.97591 17.2553C8.16344 17.0678 8.2688 16.8134 8.2688 16.5482C8.2688 16.283 8.16344 16.0286 7.97591 15.8411C7.78837 15.6536 7.53401 15.5482 7.2688 15.5482H5.2688V5.54822C5.2688 4.75257 5.58487 3.98951 6.14748 3.4269C6.71009 2.86429 7.47315 2.54822 8.2688 2.54822L8.4118 2.61122C8.64602 3.45464 9.14979 4.19826 9.84622 4.72857C10.5426 5.25888 11.3935 5.54674 12.2688 5.54822C13.156 5.54067 14.0164 5.24352 14.7191 4.70198C15.4218 4.16044 15.9284 3.40416 16.1618 2.54822H16.2688C17.0644 2.54822 17.8275 2.86429 18.3901 3.4269C18.9527 3.98951 19.2688 4.75257 19.2688 5.54822V15.5482H17.2688C17.0036 15.5482 16.7492 15.6536 16.5617 15.8411C16.3742 16.0286 16.2688 16.283 16.2688 16.5482C16.2688 16.8134 16.3742 17.0678 16.5617 17.2553C16.7492 17.4429 17.0036 17.5482 17.2688 17.5482H19.2688V21.5482C19.2688 21.8134 19.1634 22.0678 18.9759 22.2553C18.7884 22.4429 18.534 22.5482 18.2688 22.5482Z" fill="white"/>
<path id="Vector_2" d="M13.2688 15.5482H11.2688C11.0036 15.5482 10.7492 15.6536 10.5617 15.8411C10.3742 16.0286 10.2688 16.283 10.2688 16.5482C10.2688 16.8134 10.3742 17.0678 10.5617 17.2553C10.7492 17.4429 11.0036 17.5482 11.2688 17.5482H13.2688C13.534 17.5482 13.7884 17.4429 13.9759 17.2553C14.1634 17.0678 14.2688 16.8134 14.2688 16.5482C14.2688 16.283 14.1634 16.0286 13.9759 15.8411C13.7884 15.6536 13.534 15.5482 13.2688 15.5482Z" fill="white"/>
</g>
<defs>
<clipPath id="clip0_652_2798">
<rect width="24" height="24" fill="white" transform="translate(0.268799 0.548218)"/>
</clipPath>
</defs>
</svg>
