<svg width="29" height="29" viewBox="0 0 29 29" fill="none" xmlns="http://www.w3.org/2000/svg">
<g clip-path="url(#clip0_410_4787)">
<path d="M9.56108 0.539062C5.7006 0.539062 2.56111 3.67855 2.56111 7.53904C2.56111 11.3995 5.7006 14.539 9.56108 14.539C13.4216 14.539 16.5611 11.3995 16.5611 7.53904C16.5611 3.67855 13.4216 0.539062 9.56108 0.539062ZM9.56108 12.2057C6.98742 12.2057 4.89443 10.1127 4.89443 7.53904C4.89443 4.96538 6.98742 2.87239 9.56108 2.87239C12.1347 2.87239 14.2277 4.96538 14.2277 7.53904C14.2277 10.1127 12.1347 12.2057 9.56108 12.2057ZM5.47776 16.8723H11.8944V19.2057H5.47776C3.8701 19.2057 2.56111 20.5147 2.56111 22.1223V28.539H0.227783V22.1223C0.227783 19.2278 2.58327 16.8723 5.47776 16.8723ZM26.4777 21.539C26.4777 21.0023 26.3738 20.4948 26.2234 20.0072L27.8753 19.0552L26.711 17.0333L25.0649 17.9818C24.359 17.2212 23.4397 16.6693 22.3944 16.4302V14.539H20.061V16.4302C19.0157 16.6693 18.0952 17.2212 17.3906 17.9818L15.7444 17.0333L14.5801 19.0552L16.2321 20.0072C16.0816 20.4948 15.9777 21.0023 15.9777 21.539C15.9777 22.0756 16.0816 22.5831 16.2321 23.0708L14.5801 24.0228L15.7444 26.0446L17.3906 25.0961C18.0964 25.8568 19.0157 26.4086 20.061 26.6478V28.539H22.3944V26.6478C23.4397 26.4086 24.3602 25.8568 25.0649 25.0961L26.711 26.0446L27.8753 24.0228L26.2234 23.0708C26.3738 22.5831 26.4777 22.0756 26.4777 21.539ZM21.2277 24.4556C19.62 24.4556 18.311 23.1466 18.311 21.539C18.311 19.9313 19.62 18.6223 21.2277 18.6223C22.8354 18.6223 24.1444 19.9313 24.1444 21.539C24.1444 23.1466 22.8354 24.4556 21.2277 24.4556Z" fill="#DC3912"/>
</g>
<defs>
<clipPath id="clip0_410_4787">
<rect width="28" height="28" fill="white" transform="translate(0.0515137 0.539062)"/>
</clipPath>
</defs>
</svg>
