<svg width="25" height="25" viewBox="0 0 25 25" fill="none" xmlns="http://www.w3.org/2000/svg">
<g clip-path="url(#clip0_410_4787)">
<path d="M8.5 0.0390625C5.191 0.0390625 2.5 2.73006 2.5 6.03906C2.5 9.34806 5.191 12.0391 8.5 12.0391C11.809 12.0391 14.5 9.34806 14.5 6.03906C14.5 2.73006 11.809 0.0390625 8.5 0.0390625ZM8.5 10.0391C6.294 10.0391 4.5 8.24506 4.5 6.03906C4.5 3.83306 6.294 2.03906 8.5 2.03906C10.706 2.03906 12.5 3.83306 12.5 6.03906C12.5 8.24506 10.706 10.0391 8.5 10.0391ZM5 14.0391H10.5V16.0391H5C3.622 16.0391 2.5 17.1611 2.5 18.5391V24.0391H0.5V18.5391C0.5 16.0581 2.519 14.0391 5 14.0391ZM23 18.0391C23 17.5791 22.911 17.1441 22.782 16.7261L24.198 15.9101L23.2 14.1771L21.789 14.9901C21.184 14.3381 20.396 13.8651 19.5 13.6601V12.0391H17.5V13.6601C16.604 13.8651 15.815 14.3381 15.211 14.9901L13.8 14.1771L12.802 15.9101L14.218 16.7261C14.089 17.1441 14 17.5791 14 18.0391C14 18.4991 14.089 18.9341 14.218 19.3521L12.802 20.1681L13.8 21.9011L15.211 21.0881C15.816 21.7401 16.604 22.2131 17.5 22.4181V24.0391H19.5V22.4181C20.396 22.2131 21.185 21.7401 21.789 21.0881L23.2 21.9011L24.198 20.1681L22.782 19.3521C22.911 18.9341 23 18.4991 23 18.0391ZM18.5 20.5391C17.122 20.5391 16 19.4171 16 18.0391C16 16.6611 17.122 15.5391 18.5 15.5391C19.878 15.5391 21 16.6611 21 18.0391C21 19.4171 19.878 20.5391 18.5 20.5391Z" fill="#DC3912"/>
</g>
<defs>
<clipPath id="clip0_410_4787">
<rect width="24" height="24" fill="white" transform="translate(0.5 0.0390625)"/>
</clipPath>
</defs>
</svg>
