<svg width="29" height="28" viewBox="0 0 29 28" fill="none" xmlns="http://www.w3.org/2000/svg">
<path d="M21.1031 7.00003C20.8843 6.78132 20.5876 6.65845 20.2782 6.65845C19.9689 6.65845 19.6722 6.78132 19.4534 7.00003L14.1031 12.3504L8.75273 7.00003C8.53394 6.78132 8.23725 6.65845 7.92789 6.65845C7.61853 6.65845 7.32184 6.78132 7.10306 7.00003C6.88434 7.21881 6.76147 7.51551 6.76147 7.82486C6.76147 8.13422 6.88434 8.43092 7.10306 8.6497L12.4534 14L7.10306 19.3504C6.88434 19.5691 6.76147 19.8658 6.76147 20.1752C6.76147 20.4846 6.88434 20.7813 7.10306 21C7.32184 21.2187 7.61853 21.3416 7.92789 21.3416C8.23725 21.3416 8.53394 21.2187 8.75273 21L14.1031 15.6497L19.4534 21C19.6722 21.2187 19.9689 21.3416 20.2782 21.3416C20.5876 21.3416 20.8843 21.2187 21.1031 21C21.3218 20.7813 21.4446 20.4846 21.4446 20.1752C21.4446 19.8658 21.3218 19.5691 21.1031 19.3504L15.7527 14L21.1031 8.6497C21.3218 8.43092 21.4446 8.13422 21.4446 7.82486C21.4446 7.51551 21.3218 7.21881 21.1031 7.00003Z" fill="white"/>
</svg>
