<svg width="12" height="12" viewBox="0 0 12 12" fill="none" xmlns="http://www.w3.org/2000/svg">
<g clip-path="url(#clip0_333_4618)">
<path d="M12 5.50023V11.5002H0V5.50023C0 4.67323 0.673 4.00023 1.5 4.00023H5V5.00023H1.5C1.224 5.00023 1 5.22473 1 5.50023V10.5002H11V5.50023C11 5.23523 10.791 5.02223 10.5295 5.00623L11.3 4.23573C11.7195 4.50173 12 4.96773 12 5.50023ZM2.5 7.75023C2.5 8.16423 2.836 8.50023 3.25 8.50023C3.664 8.50023 4 8.16423 4 7.75023C4 7.33623 3.664 7.00023 3.25 7.00023C2.836 7.00023 2.5 7.33623 2.5 7.75023ZM5.75 8.50023C6.164 8.50023 6.5 8.16423 6.5 7.75023C6.5 7.33623 6.164 7.00023 5.75 7.00023C5.336 7.00023 5 7.33623 5 7.75023C5 8.16423 5.336 8.50023 5.75 8.50023ZM8.121 6.00023H6V3.87873L9.4395 0.439727C10.0245 -0.145273 10.9755 -0.145273 11.5605 0.439727C11.8435 0.722727 12 1.09973 12 1.50023C12 1.90073 11.8435 2.27773 11.5605 2.56123L8.121 6.00023ZM7.707 5.00023L10.8535 1.85373C10.948 1.75923 11 1.63373 11 1.50023C11 1.36673 10.948 1.24123 10.8535 1.14673C10.658 0.951226 10.342 0.951726 10.1465 1.14673L7 4.29273V5.00023H7.707Z" fill="white"/>
</g>
<defs>
<clipPath id="clip0_333_4618">
<rect width="12" height="12" fill="white"/>
</clipPath>
</defs>
</svg>
