<svg width="33" height="33" viewBox="0 0 33 33" fill="none" xmlns="http://www.w3.org/2000/svg">
<g clip-path="url(#clip0_424_4788)">
<path d="M16.103 0.539062C12.9385 0.539063 9.8451 1.47745 7.21391 3.23555C4.58272 4.99365 2.53196 7.49251 1.32096 10.4161C0.10996 13.3397 -0.206893 16.5568 0.41047 19.6605C1.02783 22.7642 2.55169 25.6151 4.78933 27.8528C7.02697 30.0904 9.87789 31.6143 12.9816 32.2316C16.0853 32.849 19.3024 32.5321 22.226 31.3211C25.1496 30.1101 27.6484 28.0594 29.4065 25.4282C31.1647 22.797 32.103 19.7036 32.103 16.5391C32.0984 12.297 30.4113 8.23001 27.4117 5.23042C24.4121 2.23083 20.3451 0.543651 16.103 0.539062ZM16.103 29.8724C13.466 29.8724 10.8881 29.0904 8.69543 27.6253C6.50278 26.1602 4.79381 24.0779 3.78464 21.6415C2.77547 19.2052 2.51143 16.5243 3.0259 13.9379C3.54037 11.3514 4.81024 8.97567 6.67494 7.11097C8.53964 5.24627 10.9154 3.9764 13.5018 3.46193C16.0882 2.94746 18.7691 3.2115 21.2055 4.22067C23.6418 5.22984 25.7242 6.9388 27.1893 9.13146C28.6544 11.3241 29.4364 13.902 29.4364 16.5391C29.4325 20.0741 28.0265 23.4632 25.5268 25.9629C23.0272 28.4625 19.6381 29.8685 16.103 29.8724Z" fill="#DC3912"/>
<path d="M16.1031 7.20569C15.7495 7.20569 15.4103 7.34616 15.1603 7.59621C14.9103 7.84626 14.7698 8.1854 14.7698 8.53902V19.2057C14.7698 19.5593 14.9103 19.8984 15.1603 20.1485C15.4103 20.3985 15.7495 20.539 16.1031 20.539C16.4567 20.539 16.7959 20.3985 17.0459 20.1485C17.296 19.8984 17.4364 19.5593 17.4364 19.2057V8.53902C17.4364 8.1854 17.296 7.84626 17.0459 7.59621C16.7959 7.34616 16.4567 7.20569 16.1031 7.20569Z" fill="#DC3912"/>
<path d="M17.4364 24.539C17.4364 23.8026 16.8395 23.2057 16.1031 23.2057C15.3667 23.2057 14.7698 23.8026 14.7698 24.539C14.7698 25.2754 15.3667 25.8724 16.1031 25.8724C16.8395 25.8724 17.4364 25.2754 17.4364 24.539Z" fill="#DC3912"/>
</g>
<defs>
<clipPath id="clip0_424_4788">
<rect width="32" height="32" fill="white" transform="translate(0.103027 0.539062)"/>
</clipPath>
</defs>
</svg>
