<svg width="18" height="19" viewBox="0 0 18 19" fill="none" xmlns="http://www.w3.org/2000/svg">
<g clip-path="url(#clip0_265_5932)">
<path d="M14.0677 12.0391C13.5513 12.0379 13.0396 12.139 12.5625 12.3366C12.0853 12.5342 11.6519 12.8243 11.2875 13.1903C10.2285 14.2554 8.9688 15.0998 7.58125 15.6746C6.1937 16.2494 4.7059 16.5432 3.204 16.5391H2.3415C2.17508 16.5393 2.01233 16.4902 1.87386 16.3979C1.73539 16.3055 1.62744 16.1742 1.56367 16.0205C1.4999 15.8668 1.48318 15.6976 1.51564 15.5344C1.5481 15.3711 1.62827 15.2212 1.746 15.1036L2.26575 14.5838C3.70786 14.5095 5.07098 13.9022 6.09075 12.8798L9.33525 9.63909C9.65183 9.72417 9.97675 9.77447 10.3042 9.78909C10.3687 9.78909 10.434 9.78909 10.5 9.78909C11.6941 9.78815 12.8392 9.31404 13.6845 8.47059L14.4345 7.72059C14.8749 7.27941 15.2189 6.75169 15.445 6.17078C15.671 5.58986 15.7741 4.96837 15.7477 4.34559C15.7227 3.72006 15.5663 3.10681 15.2886 2.54574C15.0109 1.98467 14.6182 1.48836 14.136 1.08909C13.2352 0.375589 12.1013 0.0222438 10.9546 0.097637C9.80795 0.17303 8.73017 0.671784 7.9305 1.49709L7.45575 1.97259C6.88197 2.5443 6.46401 3.25332 6.24163 4.03218C6.01925 4.81105 5.99984 5.63385 6.18525 6.42234L2.90925 9.69834C1.8863 10.7177 1.27895 12.0811 1.20525 13.5233L0.685498 14.0431C0.358057 14.3705 0.135077 14.7877 0.0447681 15.2418C-0.0455413 15.696 0.000876915 16.1667 0.178151 16.5945C0.355424 17.0222 0.655588 17.3878 1.04067 17.645C1.42575 17.9021 1.87845 18.0393 2.3415 18.0391H3.204C4.90287 18.0437 6.58579 17.7113 8.15536 17.0612C9.72492 16.4111 11.15 15.4561 12.348 14.2516C12.6881 13.9115 13.1214 13.6799 13.5931 13.5861C14.0648 13.4922 14.5538 13.5403 14.9982 13.7243C15.4425 13.9083 15.8224 14.2199 16.0897 14.6197C16.357 15.0195 16.4998 15.4896 16.5 15.9706V17.2891C16.5 17.488 16.579 17.6788 16.7197 17.8194C16.8603 17.9601 17.0511 18.0391 17.25 18.0391C17.4489 18.0391 17.6397 17.9601 17.7803 17.8194C17.921 17.6788 18 17.488 18 17.2891V15.9706C17.9986 14.9282 17.5838 13.9289 16.8467 13.1919C16.1095 12.4548 15.1101 12.0403 14.0677 12.0391ZM8.51775 3.03009L8.9925 2.55459C9.60852 1.93558 10.4442 1.58513 11.3175 1.57959C11.9936 1.573 12.6501 1.80602 13.1707 2.23734C13.4929 2.50332 13.7554 2.83409 13.9413 3.20816C14.1273 3.58223 14.2324 3.99123 14.25 4.40859C14.2673 4.82373 14.1985 5.23796 14.0479 5.62519C13.8972 6.01243 13.668 6.36428 13.3747 6.65859L12.6247 7.40859C12.3301 7.70327 11.9772 7.93332 11.5887 8.08409C11.2002 8.23486 10.7846 8.30303 10.3683 8.28426C9.95196 8.26549 9.54413 8.16019 9.17076 7.97508C8.7974 7.78996 8.4667 7.52909 8.19975 7.20909C7.72577 6.59693 7.49575 5.8307 7.55422 5.05871C7.61269 4.28672 7.95548 3.56387 8.51625 3.03009H8.51775ZM3.96975 10.7588L6.84675 7.88109C6.915 7.97859 6.96975 8.08359 7.047 8.17584C7.29595 8.46992 7.58094 8.73147 7.89525 8.95434L5.03025 11.8193C4.41362 12.4379 3.62477 12.8561 2.76675 13.0193C2.93138 12.162 3.35061 11.3743 3.96975 10.7588Z" fill="#D0CED4"/>
</g>
<defs>
<clipPath id="clip0_265_5932">
<rect width="18" height="18" fill="white" transform="translate(0 0.0390625)"/>
</clipPath>
</defs>
</svg>
