<svg width="22" height="18" viewBox="0 0 22 18" fill="none" xmlns="http://www.w3.org/2000/svg">
<path d="M21.3331 6.69206C20.5121 5.34781 19.4766 4.14705 18.2677 3.13745C18.2677 3.13745 18.3852 3.2367 18.2677 3.13179C18.0807 2.96497 16.7591 2.08407 16.7591 2.08407C16.7591 2.08407 16.7591 2.07807 16.7591 2.08147V2.07807C15.0426 1.05854 13.0803 0.527163 11.0839 0.54129C5.45418 0.54129 2.24603 4.39507 0.834736 6.69206C0.398734 7.39726 0.167786 8.20996 0.167786 9.03906C0.167786 9.86816 0.398734 10.6809 0.834736 11.3861C1.65565 12.7303 2.69114 13.9311 3.90012 14.9407C3.90012 14.9407 5.32574 15.9587 5.42911 16.0057C5.54006 15.958 5.11614 15.7868 5.41508 15.9973C7.12942 17.0167 9.08942 17.549 11.0839 17.5368C16.7136 17.5368 19.9218 13.6831 21.3331 11.3861C21.7691 10.6809 22 9.86816 22 9.03906C22 8.20996 21.7691 7.39726 21.3331 6.69206ZM2.38425 10.434C2.12521 10.0148 1.98801 9.53181 1.98801 9.03906C1.98801 8.54631 2.12521 8.0633 2.38425 7.64413C3.59731 5.67451 6.33896 2.35997 11.0839 2.35997C12.5936 2.35151 14.0822 2.71537 15.4178 3.41935L13.5873 5.24985C12.7143 4.67024 11.6676 4.41052 10.6249 4.51478C9.58218 4.61903 8.60764 5.08084 7.86666 5.82182C7.12567 6.56281 6.66387 7.53734 6.55961 8.58006C6.45536 9.62277 6.71507 10.6694 7.29468 11.5425L5.19411 13.643C4.08026 12.7425 3.12976 11.657 2.38425 10.434ZM19.7835 10.434C18.5705 12.4036 15.8288 15.7182 11.0839 15.7182C9.5206 15.7182 6.55961 14.9407 5.19411 13.643L7.29468 11.5425L8.58049 12.8283C9.45351 13.4079 10.5002 13.6676 11.5429 13.5633C12.5856 13.4591 13.5601 12.9973 14.3011 12.2563C15.0421 11.5153 15.5039 10.5408 15.6082 9.49807C15.7124 8.45535 15.4178 6.18907 13.5873 5.24985L15.4178 3.41935C16.7534 4.12332 19.038 6.42112 19.7835 7.64413C20.0426 8.0633 20.1798 8.54631 20.1798 9.03906C20.1798 9.53181 20.0426 10.0148 19.7835 10.434Z" fill="white"/>
</svg>
