<svg width="22" height="22" viewBox="0 0 22 22" fill="none" xmlns="http://www.w3.org/2000/svg">
<path d="M21.2493 8.64182C20.4283 7.29757 19.3928 6.09681 18.1839 5.08722L20.73 2.54107C20.8957 2.36956 20.9873 2.13986 20.9853 1.90144C20.9832 1.66301 20.8875 1.43494 20.7189 1.26634C20.5503 1.09774 20.3223 1.00211 20.0838 1.00003C19.8454 0.997963 19.6157 1.08962 19.4442 1.25526L16.6753 4.02784C14.9588 3.00831 12.9965 2.47693 11.0001 2.49105C5.37038 2.49105 2.16223 6.34483 0.750935 8.64182C0.314933 9.34702 0.0839844 10.1597 0.0839844 10.9888C0.0839844 11.8179 0.314933 12.6306 0.750935 13.3358C1.57185 14.6801 2.60734 15.8808 3.81632 16.8904L1.27017 19.4366C1.18332 19.5205 1.11404 19.6208 1.06638 19.7318C1.01873 19.8427 0.993641 19.962 0.992592 20.0828C0.991542 20.2035 1.01455 20.3232 1.06027 20.435C1.10599 20.5468 1.17352 20.6483 1.2589 20.7337C1.34428 20.819 1.44581 20.8866 1.55756 20.9323C1.66932 20.978 1.78906 21.001 1.9098 21C2.03054 20.9989 2.14986 20.9738 2.26081 20.9262C2.37175 20.8785 2.47209 20.8092 2.55597 20.7224L5.33127 17.9471C7.04562 18.9665 9.00562 19.4987 11.0001 19.4866C16.6298 19.4866 19.838 15.6328 21.2493 13.3358C21.6853 12.6306 21.9162 11.8179 21.9162 10.9888C21.9162 10.1597 21.6853 9.34702 21.2493 8.64182ZM2.30045 12.3838C2.04141 11.9646 1.9042 11.4816 1.9042 10.9888C1.9042 10.4961 2.04141 10.0131 2.30045 9.5939C3.51351 7.62427 6.25516 4.30973 11.0001 4.30973C12.5098 4.30127 13.9984 4.66514 15.334 5.36911L13.5035 7.19961C12.6305 6.62 11.5838 6.36029 10.5411 6.46454C9.49837 6.5688 8.52384 7.0306 7.78286 7.77159C7.04187 8.51257 6.58007 9.48711 6.47581 10.5298C6.37156 11.5725 6.63127 12.6192 7.21088 13.4922L5.11031 15.5928C3.99646 14.6923 3.04596 13.6068 2.30045 12.3838ZM13.7281 10.9888C13.7281 11.7123 13.4407 12.4062 12.9291 12.9178C12.4175 13.4294 11.7236 13.7168 11.0001 13.7168C10.595 13.7153 10.1955 13.622 9.83159 13.444L13.4553 9.82033C13.6333 10.1842 13.7265 10.5837 13.7281 10.9888ZM8.27208 10.9888C8.27208 10.2653 8.55949 9.57143 9.0711 9.05983C9.5827 8.54822 10.2766 8.26081 11.0001 8.26081C11.4052 8.26238 11.8047 8.35564 12.1686 8.53361L8.54488 12.1573C8.36691 11.7934 8.27365 11.3939 8.27208 10.9888ZM19.6997 12.3838C18.4867 14.3534 15.745 17.6679 11.0001 17.6679C9.49034 17.6764 8.00179 17.3125 6.66618 16.6085L8.49668 14.778C9.36971 15.3577 10.4164 15.6174 11.4591 15.5131C12.5018 15.4089 13.4763 14.9471 14.2173 14.2061C14.9583 13.4651 15.4201 12.4905 15.5244 11.4478C15.6286 10.4051 15.3689 9.35844 14.7893 8.48542L16.8899 6.38484C18.0037 7.28534 18.9542 8.37088 19.6997 9.5939C19.9588 10.0131 20.096 10.4961 20.096 10.9888C20.096 11.4816 19.9588 11.9646 19.6997 12.3838Z" fill="white"/>
</svg>
