<svg width="24" height="25" viewBox="0 0 24 25" fill="none" xmlns="http://www.w3.org/2000/svg">
<g clip-path="url(#clip0_69_9649)">
<path d="M17.5 1.95605C16.3739 1.97357 15.2724 2.28791 14.3067 2.86733C13.341 3.44674 12.5453 4.27072 12 5.25605C11.4546 4.27072 10.6589 3.44674 9.6932 2.86733C8.7275 2.28791 7.62601 1.97357 6.49996 1.95605C4.7049 2.03405 3.01366 2.81931 1.79574 4.14029C0.577818 5.46127 -0.0677922 7.21058 -4.17093e-05 9.00605C-4.17093e-05 13.5531 4.78596 18.5191 8.79996 21.8861C9.69618 22.6392 10.8293 23.0521 12 23.0521C13.1706 23.0521 14.3037 22.6392 15.2 21.8861C19.214 18.5191 24 13.5531 24 9.00605C24.0677 7.21058 23.4221 5.46127 22.2042 4.14029C20.9863 2.81931 19.295 2.03405 17.5 1.95605ZM13.915 20.3561C13.3789 20.8074 12.7007 21.055 12 21.055C11.2992 21.055 10.621 20.8074 10.085 20.3561C4.94696 16.0451 1.99996 11.9091 1.99996 9.00605C1.9316 7.74077 2.36632 6.49978 3.20932 5.55375C4.05232 4.60772 5.23519 4.0334 6.49996 3.95605C7.76472 4.0334 8.9476 4.60772 9.7906 5.55375C10.6336 6.49978 11.0683 7.74077 11 9.00605C11 9.27127 11.1053 9.52563 11.2929 9.71316C11.4804 9.9007 11.7347 10.0061 12 10.0061C12.2652 10.0061 12.5195 9.9007 12.7071 9.71316C12.8946 9.52563 13 9.27127 13 9.00605C12.9316 7.74077 13.3663 6.49978 14.2093 5.55375C15.0523 4.60772 16.2352 4.0334 17.5 3.95605C18.7647 4.0334 19.9476 4.60772 20.7906 5.55375C21.6336 6.49978 22.0683 7.74077 22 9.00605C22 11.9091 19.053 16.0451 13.915 20.3521V20.3561Z" fill="white"/>
</g>
<defs>
<clipPath id="clip0_69_9649">
<rect width="24" height="24" fill="white" transform="translate(0 0.0390625)"/>
</clipPath>
</defs>
</svg>
