<svg width="24" height="23" viewBox="0 0 24 23" fill="none" xmlns="http://www.w3.org/2000/svg">
<path d="M17.5 0.956055C16.3739 0.97357 15.2724 1.28791 14.3067 1.86733C13.341 2.44674 12.5453 3.27072 12 4.25605C11.4546 3.27072 10.6589 2.44674 9.6932 1.86733C8.7275 1.28791 7.62601 0.97357 6.49996 0.956055C4.7049 1.03405 3.01366 1.81931 1.79574 3.14029C0.577818 4.46127 -0.0677922 6.21058 -4.17093e-05 8.00605C-4.17093e-05 12.5531 4.78596 17.5191 8.79996 20.8861C9.69618 21.6392 10.8293 22.0521 12 22.0521C13.1706 22.0521 14.3037 21.6392 15.2 20.8861C19.214 17.5191 24 12.5531 24 8.00605C24.0677 6.21058 23.4221 4.46127 22.2042 3.14029C20.9863 1.81931 19.295 1.03405 17.5 0.956055Z" fill="white"/>
</svg>
