<svg width="28" height="29" viewBox="0 0 28 29" fill="none" xmlns="http://www.w3.org/2000/svg">
<g clip-path="url(#clip0_874_75)">
<path d="M14 0.539062C10.5535 0.549488 7.23134 1.82769 4.66667 4.13006V0.539062H2.33333V6.53923C2.33395 7.11363 2.56241 7.66433 2.96857 8.07049C3.37473 8.47666 3.92543 8.70511 4.49983 8.70573H10.5V6.3724H5.69217C7.58831 4.45156 10.0926 3.24876 12.7772 2.9695C15.4618 2.69023 18.16 3.35184 20.4109 4.84128C22.6618 6.33072 24.3256 8.55555 25.1182 11.1356C25.9107 13.7157 25.7827 16.491 24.756 18.9871C23.7294 21.4833 21.8678 23.5456 19.4894 24.8215C17.1109 26.0974 14.3632 26.5078 11.7158 25.9826C9.06829 25.4575 6.68534 24.0292 4.97406 21.942C3.26278 19.8548 2.32938 17.2381 2.33333 14.5391H0C0 17.308 0.821086 20.0148 2.35943 22.317C3.89777 24.6193 6.08427 26.4137 8.64243 27.4734C11.2006 28.533 14.0155 28.8103 16.7313 28.2701C19.447 27.7299 21.9416 26.3965 23.8995 24.4386C25.8574 22.4806 27.1908 19.9861 27.731 17.2703C28.2712 14.5546 27.9939 11.7397 26.9343 9.18149C25.8747 6.62333 24.0803 4.43683 21.778 2.89849C19.4757 1.36015 16.7689 0.539062 14 0.539062Z" fill="#DC3912"/>
<path d="M12.8334 8.70557V15.0219L16.6752 18.8637L18.3249 17.2141L15.1667 14.0559V8.70557H12.8334Z" fill="#FF6C49"/>
</g>
<defs>
<clipPath id="clip0_874_75">
<rect width="28" height="28" fill="white" transform="translate(0 0.539062)"/>
</clipPath>
</defs>
</svg>
