<svg width="29" height="29" viewBox="0 0 29 29" fill="none" xmlns="http://www.w3.org/2000/svg">
<g clip-path="url(#clip0_69_10942)">
<path d="M14.0515 0.539062C10.605 0.549488 7.28285 1.82769 4.71818 4.13006V0.539062H2.38485V6.53923C2.38546 7.11363 2.61392 7.66433 3.02008 8.07049C3.42625 8.47666 3.97695 8.70511 4.55135 8.70573H10.5515V6.3724H5.74368C7.63982 4.45156 10.1441 3.24876 12.8287 2.9695C15.5133 2.69023 18.2115 3.35184 20.4624 4.84128C22.7133 6.33072 24.3772 8.55555 25.1697 11.1356C25.9622 13.7157 25.8342 16.491 24.8075 18.9871C23.7809 21.4833 21.9193 23.5456 19.5409 24.8215C17.1624 26.0974 14.4148 26.5078 11.7673 25.9826C9.1198 25.4575 6.73685 24.0292 5.02557 21.942C3.31429 19.8548 2.38089 17.2381 2.38485 14.5391H0.0515137C0.0515137 17.308 0.872599 20.0148 2.41094 22.317C3.94928 24.6193 6.13578 26.4137 8.69395 27.4734C11.2521 28.533 14.067 28.8103 16.7828 28.2701C19.4985 27.7299 21.9931 26.3965 23.951 24.4386C25.9089 22.4806 27.2423 19.9861 27.7825 17.2703C28.3227 14.5546 28.0455 11.7397 26.9858 9.18149C25.9262 6.62333 24.1318 4.43683 21.8295 2.89849C19.5272 1.36015 16.8205 0.539062 14.0515 0.539062Z" fill="#DC3912"/>
<path d="M12.8849 8.70557V15.0219L16.7267 18.8637L18.3764 17.2141L15.2182 14.0559V8.70557H12.8849Z" fill="#DC3912"/>
</g>
<defs>
<clipPath id="clip0_69_10942">
<rect width="28" height="28" fill="white" transform="translate(0.0515137 0.539062)"/>
</clipPath>
</defs>
</svg>
