<svg width="32" height="33" viewBox="0 0 32 33" fill="none" xmlns="http://www.w3.org/2000/svg">
<g clip-path="url(#clip0_652_2758)">
<path fill-rule="evenodd" clip-rule="evenodd" d="M30.1707 8.20703H1.828C0.82 8.20703 0 9.02836 0 10.0364V22.0404C0 23.0497 0.82 23.8697 1.828 23.8697H30.1707C31.1787 23.8697 32 23.0497 32 22.0404V10.0364C32 9.02836 31.18 8.20703 30.1707 8.20703ZM30.1707 8.53103C31.0027 8.53103 31.676 9.20436 31.676 10.0364V22.0404C31.676 22.8737 31.004 23.5457 30.1707 23.5457H1.828C0.996 23.5457 0.322667 22.8724 0.322667 22.0404V10.0364C0.322667 9.20436 0.996 8.53103 1.828 8.53103H30.1707Z" fill="#C4DC12"/>
<path d="M6.97591 11.5244H4.60791V20.6591H6.97591V11.5244Z" fill="#C4DC12"/>
<path fill-rule="evenodd" clip-rule="evenodd" d="M12.0294 11.5244L11.4801 15.7937L11.1441 13.4737C11.0427 12.7297 10.9507 12.0777 10.8574 11.5244H7.7854V20.6591H9.8614L9.87073 14.6284L10.7427 20.6591H12.2214L13.0534 14.4951L13.0574 20.6591H15.1281V11.5244H12.0294Z" fill="#C4DC12"/>
<path fill-rule="evenodd" clip-rule="evenodd" d="M18.832 13.1724C18.924 13.2257 18.9867 13.3097 19.0134 13.4297C19.04 13.5444 19.0534 13.8097 19.0534 14.2217V17.7591C19.0534 18.3711 19.0134 18.7431 18.9334 18.8804C18.8534 19.0177 18.6454 19.0831 18.3054 19.0831V13.0884C18.5627 13.0884 18.7387 13.1151 18.832 13.1724ZM18.8107 20.6604C19.3774 20.6604 19.8027 20.6297 20.0854 20.5671C20.364 20.5057 20.6027 20.3991 20.7934 20.2391C20.984 20.0844 21.1214 19.8671 21.196 19.5924C21.276 19.3177 21.32 18.7684 21.32 17.9497V14.7444C21.32 13.8804 21.284 13.3004 21.236 13.0044C21.1827 12.7124 21.0507 12.4417 20.8374 12.2031C20.6294 11.9631 20.32 11.7911 19.916 11.6844C19.5134 11.5777 18.8494 11.5244 17.7027 11.5244H15.936V20.6591L18.8107 20.6604Z" fill="#C4DC12"/>
<path fill-rule="evenodd" clip-rule="evenodd" d="M25.2106 18.4457C25.2106 18.8844 25.1879 19.1671 25.1439 19.2817C25.0999 19.3977 24.9092 19.4537 24.7626 19.4537C24.6212 19.4537 24.5279 19.4017 24.4799 19.2857C24.4359 19.1751 24.4092 18.9177 24.4092 18.5151V16.1017C24.4092 15.6857 24.4306 15.4284 24.4719 15.3217C24.5159 15.2204 24.6092 15.1671 24.7466 15.1671C24.8932 15.1671 25.0866 15.2297 25.1359 15.3444C25.1839 15.4644 25.2106 15.7164 25.2106 16.1017V18.4457ZM22.1252 11.5244V20.6591H24.2586L24.4092 20.0791C24.5999 20.3137 24.8119 20.4857 25.0466 20.6057C25.2812 20.7204 25.6266 20.7777 25.8959 20.7777C26.2679 20.7777 26.5946 20.6804 26.8652 20.4817C27.1399 20.2871 27.3132 20.0524 27.3839 19.7857C27.4586 19.5164 27.4946 19.1084 27.4946 18.5631V16.0004C27.4946 15.4471 27.4852 15.0884 27.4586 14.9204C27.3932 14.5004 27.0999 14.1537 26.7146 13.9897C26.4799 13.8924 26.2106 13.8431 25.8959 13.8431C25.6266 13.8431 25.2759 13.8964 25.0426 14.0071C24.8119 14.1124 24.5999 14.2764 24.4092 14.4937V11.5244H22.1252Z" fill="#C4DC12"/>
</g>
<defs>
<clipPath id="clip0_652_2758">
<rect width="32" height="32" fill="white" transform="translate(0 0.0390625)"/>
</clipPath>
</defs>
</svg>
