<svg width="29" height="29" viewBox="0 0 29 29" fill="none" xmlns="http://www.w3.org/2000/svg">
<g clip-path="url(#clip0_542_5041)">
<path d="M14.0515 7.79932C13.1288 7.79932 12.2269 8.07301 11.4597 8.58579C10.6926 9.09857 10.0947 9.82741 9.74158 10.6801C9.3885 11.5328 9.29611 12.4712 9.47611 13.3764C9.65611 14.2817 10.1004 15.1132 10.7528 15.7658C11.4052 16.4185 12.2365 16.8629 13.1414 17.043C14.0463 17.223 14.9843 17.1306 15.8367 16.7774C16.6891 16.4242 17.4177 15.8261 17.9303 15.0586C18.4429 14.2912 18.7165 13.389 18.7165 12.466C18.7165 11.2283 18.225 10.0413 17.3501 9.16615C16.4753 8.29098 15.2887 7.79932 14.0515 7.79932ZM14.0515 14.7993C13.5902 14.7993 13.1392 14.6625 12.7556 14.4061C12.372 14.1497 12.0731 13.7853 11.8965 13.3589C11.72 12.9326 11.6738 12.4634 11.7638 12.0108C11.8538 11.5582 12.0759 11.1424 12.4022 10.8161C12.7284 10.4897 13.144 10.2675 13.5964 10.1775C14.0489 10.0875 14.5179 10.1337 14.9441 10.3103C15.3703 10.4869 15.7346 10.7859 15.9909 11.1697C16.2472 11.5534 16.384 12.0045 16.384 12.466C16.384 13.0848 16.1382 13.6783 15.7008 14.1159C15.2634 14.5535 14.6701 14.7993 14.0515 14.7993Z" fill="#DC3912"/>
<path d="M14.0515 28.539C12.8791 28.544 11.7223 28.3136 10.678 27.867C9.63364 27.4205 8.7322 26.7707 8.04913 25.9723C2.74291 19.8391 0.0515137 15.2285 0.0515137 12.2675C0.0515137 9.15625 1.52651 6.17246 4.15202 3.9725C6.77753 1.77254 10.3385 0.536621 14.0515 0.536621C17.7645 0.536621 21.3255 1.77254 23.951 3.9725C26.5765 6.17246 28.0515 9.15625 28.0515 12.2675C28.0515 15.2285 25.3601 19.8391 20.0539 25.9723C19.3708 26.7707 18.4694 27.4205 17.4251 27.867C16.3807 28.3136 15.2239 28.544 14.0515 28.539ZM14.0515 3.08345C11.1449 3.08623 8.35825 4.05497 6.30295 5.77714C4.24765 7.49931 3.09153 9.83427 3.08821 12.2698C3.08821 14.6148 5.72391 18.9513 10.508 24.4801C10.9141 24.9489 11.447 25.3304 12.0628 25.5934C12.6787 25.8565 13.3602 25.9936 14.0515 25.9936C14.7428 25.9936 15.4243 25.8565 16.0402 25.5934C16.6561 25.3304 17.1889 24.9489 17.595 24.4801C22.3791 18.9513 25.0148 14.6148 25.0148 12.2698C25.0115 9.83427 23.8554 7.49931 21.8001 5.77714C19.7448 4.05497 16.9581 3.08623 14.0515 3.08345Z" fill="#DC3912"/>
</g>
<defs>
<clipPath id="clip0_542_5041">
<rect width="28" height="28" fill="white" transform="translate(0.0515137 0.539062)"/>
</clipPath>
</defs>
</svg>
