<svg width="147" height="27" viewBox="0 0 147 27" fill="none" xmlns="http://www.w3.org/2000/svg">
<path d="M12.9645 26.2369C11.2078 26.2369 9.55054 25.479 8.4183 24.1575C6.75452 24.3443 5.03996 23.7277 3.79753 22.507C2.55617 21.2864 1.92955 19.5987 2.07973 17.8771C0.771389 16.8539 0 15.2257 0 13.4998C0 11.7739 0.771389 10.1457 2.11754 9.03331C1.92847 7.4019 2.55509 5.71424 3.79753 4.4936C5.03996 3.27296 6.75452 2.65415 8.50905 2.80594C9.55054 1.52161 11.2078 0.762695 12.9645 0.762695C14.7212 0.762695 16.3785 1.52055 17.5108 2.84202C19.1767 2.6584 20.8891 3.2719 22.1315 4.49254C23.3729 5.71317 23.9995 7.40084 23.8493 9.12247C25.1577 10.1457 25.9291 11.7739 25.9291 13.4998C25.9291 15.2257 25.1577 16.8539 23.8115 17.9662C24.0006 19.5977 23.374 21.2853 22.1315 22.506C20.888 23.7266 19.1702 24.338 17.42 24.1936C16.3785 25.4779 14.7212 26.2369 12.9645 26.2369ZM8.50581 22.0718C9.1119 22.0718 9.6737 22.3276 10.0702 22.7894C10.7919 23.6311 11.8463 24.114 12.9645 24.114C14.0827 24.114 15.1372 23.6311 15.8589 22.7894C16.2943 22.2809 16.9284 22.0241 17.6048 22.0782C18.7219 22.1705 19.813 21.781 20.6039 21.004C21.3936 20.2281 21.7923 19.154 21.6972 18.0575C21.6389 17.3952 21.9025 16.77 22.4211 16.3412C23.2767 15.6332 23.7683 14.5962 23.7683 13.4987C23.7683 12.4012 23.2767 11.3642 22.4211 10.6562C21.9036 10.2285 21.6389 9.60223 21.6972 8.9399C21.7923 7.84345 21.3947 6.76929 20.6039 5.99339C19.813 5.21749 18.7154 4.83219 17.6058 4.91923C16.9295 4.97867 16.2943 4.7165 15.8589 4.20914C15.1372 3.36743 14.0827 2.88448 12.9645 2.88448C11.8463 2.88448 10.7919 3.36743 10.0702 4.20914C9.63373 4.71756 8.99738 4.9723 8.32431 4.92029C7.2018 4.82476 6.11602 5.21749 5.32518 5.99445C4.53542 6.77035 4.13677 7.84451 4.23184 8.94096C4.29018 9.60329 4.02657 10.2285 3.50799 10.6573C2.65233 11.3653 2.16075 12.4023 2.16075 13.4998C2.16075 14.5973 2.65233 15.6343 3.50799 16.3423C4.02549 16.77 4.29018 17.3963 4.23184 18.0586C4.13677 19.155 4.53434 20.2292 5.32518 21.0051C6.11602 21.781 7.21908 22.1674 8.32323 22.0793C8.38481 22.074 8.44531 22.0718 8.50581 22.0718ZM13.8299 16.8273L18.9498 11.9788C19.3787 11.5722 19.3917 10.8993 18.9768 10.4779C18.563 10.0565 17.8792 10.0438 17.4492 10.4503L12.3152 15.3127C11.8928 15.7277 11.2111 15.7277 10.7595 15.2862L8.29838 13.0391C7.86407 12.6411 7.17911 12.6644 6.77181 13.0943C6.36558 13.5231 6.39043 14.195 6.82799 14.5941L9.26099 16.8146C9.8941 17.4366 10.7271 17.7476 11.5579 17.7476C12.3844 17.7476 13.2065 17.4408 13.831 16.8284L13.8299 16.8273Z" fill="#DC3912"/>
<path d="M44.1508 21.5H35.4628V5.42H43.9108C44.8868 5.42 45.7268 5.572 46.4308 5.876C47.1508 6.18 47.7028 6.636 48.0868 7.244C48.4868 7.836 48.6868 8.556 48.6868 9.404C48.6868 10.316 48.4228 11.1 47.8948 11.756C47.3668 12.396 46.5508 12.804 45.4468 12.98V13.124C46.6948 13.332 47.6308 13.788 48.2548 14.492C48.8788 15.18 49.1908 16.036 49.1908 17.06C49.1908 17.988 48.9828 18.788 48.5668 19.46C48.1508 20.116 47.5668 20.62 46.8148 20.972C46.0628 21.324 45.1748 21.5 44.1508 21.5ZM37.1668 13.892V19.94H44.0068C45.1428 19.94 45.9988 19.692 46.5748 19.196C47.1668 18.7 47.4628 17.932 47.4628 16.892C47.4628 15.852 47.1668 15.092 46.5748 14.612C45.9828 14.132 45.1268 13.892 44.0068 13.892H37.1668ZM37.1668 6.98V12.428H43.6228C44.7268 12.428 45.5588 12.204 46.1188 11.756C46.6948 11.308 46.9828 10.628 46.9828 9.716C46.9828 8.772 46.7188 8.084 46.1908 7.652C45.6628 7.204 44.8548 6.98 43.7668 6.98H37.1668ZM56.2088 21.74C55.0888 21.74 54.1528 21.508 53.4008 21.044C52.6648 20.564 52.1048 19.932 51.7208 19.148C51.3528 18.364 51.1688 17.508 51.1688 16.58V9.644H52.8728V16.316C52.8728 17.532 53.1848 18.484 53.8088 19.172C54.4328 19.86 55.4328 20.204 56.8088 20.204C58.2648 20.204 59.3608 19.788 60.0968 18.956C60.8488 18.108 61.2248 16.924 61.2248 15.404L61.6808 15.38V17.804H61.2728C61.1448 18.476 60.8648 19.108 60.4328 19.7C60.0168 20.292 59.4568 20.78 58.7528 21.164C58.0488 21.548 57.2008 21.74 56.2088 21.74ZM62.9288 21.5H61.3928V17.756L61.2248 17.636V9.644H62.9288V21.5ZM67.3555 25.58H65.8675V24.02H67.6675C68.2595 24.02 68.6995 23.916 68.9875 23.708C69.2915 23.516 69.5555 23.172 69.7795 22.676L70.6915 20.756L70.4755 21.74L64.4755 9.644H66.3475L69.8275 16.7L71.1475 19.604H71.2915L72.5635 16.676L75.8515 9.644H77.7235L71.2915 23.156C71.0035 23.748 70.6755 24.22 70.3075 24.572C69.9555 24.94 69.5395 25.196 69.0595 25.34C68.5795 25.5 68.0115 25.58 67.3555 25.58ZM81.0698 21.5H79.3658V5.42H81.6938L87.0938 15.908L88.5098 18.884H88.6298L90.0218 15.908L95.3978 5.42H97.7498V21.5H96.0458V10.172L96.0938 8.012H95.9498L94.9418 10.172L89.5898 20.54H87.5258L82.1738 10.172L81.1418 8.012H81.0218L81.0698 10.172V21.5ZM102.16 25.58H100.672V24.02H102.472C103.064 24.02 103.504 23.916 103.792 23.708C104.096 23.516 104.36 23.172 104.584 22.676L105.496 20.756L105.28 21.74L99.2802 9.644H101.152L104.632 16.7L105.952 19.604H106.096L107.368 16.676L110.656 9.644H112.528L106.096 23.156C105.808 23.748 105.48 24.22 105.112 24.572C104.76 24.94 104.344 25.196 103.864 25.34C103.384 25.5 102.816 25.58 102.16 25.58ZM121.322 21.5H119.618V5.42H121.322V21.5ZM127.922 6.98H112.994V5.42H127.922V6.98ZM131.32 21.5H129.616V9.644H131.32V21.5ZM131.32 8.132H129.616V5.42H131.32V8.132ZM135.002 21.5H132.962L138.362 15.596V15.476L132.962 9.644H135.026L139.658 14.564H139.778L144.386 9.644H146.426L141.002 15.428V15.548L146.426 21.5H144.362L139.706 16.484H139.61L135.002 21.5Z" fill="white"/>
</svg>
