<svg width="28" height="29" viewBox="0 0 28 29" fill="none" xmlns="http://www.w3.org/2000/svg">
<g clip-path="url(#clip0_652_2442)">
<path d="M26.5568 12.4762L20.7818 6.70117L19.1333 8.35551L24.15 13.3722H7.71985V15.7055H24.15L19.1333 20.7222L20.783 22.3718L26.558 16.5968C26.8289 16.326 27.0438 16.0044 27.1905 15.6505C27.3371 15.2966 27.4126 14.9173 27.4126 14.5342C27.4126 14.1511 27.3371 13.7718 27.1905 13.4178C27.0438 13.0639 26.8289 12.7424 26.558 12.4715L26.5568 12.4762Z" fill="#FF6C49"/>
<path d="M12.222 25.0391C12.222 25.3485 12.0991 25.6452 11.8803 25.864C11.6615 26.0828 11.3648 26.2057 11.0553 26.2057H3.5C3.19058 26.2057 2.89383 26.0828 2.67504 25.864C2.45625 25.6452 2.33333 25.3485 2.33333 25.0391V4.03906C2.33333 3.72964 2.45625 3.4329 2.67504 3.2141C2.89383 2.99531 3.19058 2.8724 3.5 2.8724H11.0553C11.3648 2.8724 11.6615 2.99531 11.8803 3.2141C12.0991 3.4329 12.222 3.72964 12.222 4.03906V10.2609H14.5553V4.03906C14.5553 3.1108 14.1866 2.22057 13.5302 1.56419C12.8738 0.907811 11.9836 0.539063 11.0553 0.539063L3.5 0.539062C2.57174 0.539063 1.6815 0.907811 1.02513 1.56419C0.368749 2.22057 0 3.1108 0 4.03906L0 25.0391C0 25.9673 0.368749 26.8576 1.02513 27.5139C1.6815 28.1703 2.57174 28.5391 3.5 28.5391H11.0553C11.9836 28.5391 12.8738 28.1703 13.5302 27.5139C14.1866 26.8576 14.5553 25.9673 14.5553 25.0391V18.8172H12.222V25.0391Z" fill="#DC3912"/>
</g>
<defs>
<clipPath id="clip0_652_2442">
<rect width="28" height="28" fill="white" transform="translate(0 0.539062)"/>
</clipPath>
</defs>
</svg>
