<svg width="29" height="29" viewBox="0 0 29 29" fill="none" xmlns="http://www.w3.org/2000/svg">
<g clip-path="url(#clip0_541_5009)">
<path d="M27.4021 12.4762L21.6271 6.70117L19.9786 8.35551L24.9952 13.3722H8.56506V15.7055H24.9952L19.9786 20.7222L21.6282 22.3718L27.4032 16.5968C27.6741 16.326 27.8891 16.0044 28.0357 15.6505C28.1823 15.2966 28.2578 14.9173 28.2578 14.5342C28.2578 14.1511 28.1823 13.7718 28.0357 13.4178C27.8891 13.0639 27.6741 12.7424 27.4032 12.4715L27.4021 12.4762Z" fill="#DC3912"/>
<path d="M12.0672 25.0391C12.0672 25.3485 11.9443 25.6452 11.7255 25.864C11.5067 26.0828 11.21 26.2057 10.9005 26.2057H3.34521C3.0358 26.2057 2.73905 26.0828 2.52026 25.864C2.30146 25.6452 2.17855 25.3485 2.17855 25.0391V4.03906C2.17855 3.72964 2.30146 3.4329 2.52026 3.2141C2.73905 2.99531 3.0358 2.8724 3.34521 2.8724H10.9005C11.21 2.8724 11.5067 2.99531 11.7255 3.2141C11.9443 3.4329 12.0672 3.72964 12.0672 4.03906V10.2609H14.4005V4.03906C14.4005 3.1108 14.0318 2.22057 13.3754 1.56419C12.719 0.907811 11.8288 0.539063 10.9005 0.539063L3.34521 0.539062C2.41696 0.539063 1.52672 0.907811 0.870341 1.56419C0.213964 2.22057 -0.154785 3.1108 -0.154785 4.03906L-0.154785 25.0391C-0.154785 25.9673 0.213964 26.8576 0.870341 27.5139C1.52672 28.1703 2.41696 28.5391 3.34521 28.5391H10.9005C11.8288 28.5391 12.719 28.1703 13.3754 27.5139C14.0318 26.8576 14.4005 25.9673 14.4005 25.0391V18.8172H12.0672V25.0391Z" fill="#DC3912"/>
</g>
<defs>
<clipPath id="clip0_541_5009">
<rect width="28" height="28" fill="white" transform="translate(0.0515137 0.539062)"/>
</clipPath>
</defs>
</svg>
