<svg width="29" height="29" viewBox="0 0 29 29" fill="none" xmlns="http://www.w3.org/2000/svg">
<g clip-path="url(#clip0_547_1188)">
<path d="M26.7882 12.4762L21.0132 6.70117L19.3647 8.3555L24.3813 13.3722H7.95117V15.7055H24.3813L19.3647 20.7222L21.0143 22.3718L26.7893 16.5968C27.0603 16.326 27.2752 16.0044 27.4218 15.6505C27.5684 15.2966 27.6439 14.9173 27.6439 14.5342C27.6439 14.1511 27.5684 13.7718 27.4218 13.4178C27.2752 13.0639 27.0603 12.7424 26.7893 12.4715L26.7882 12.4762Z" fill="#DC3912"/>
<path d="M12.4534 25.0391C12.4534 25.3485 12.3305 25.6452 12.1117 25.864C11.8929 26.0828 11.5962 26.2057 11.2868 26.2057H3.73145C3.42203 26.2057 3.12528 26.0828 2.90649 25.864C2.68769 25.6452 2.56478 25.3485 2.56478 25.0391V4.03906C2.56478 3.72964 2.68769 3.4329 2.90649 3.2141C3.12528 2.99531 3.42203 2.8724 3.73145 2.8724H11.2868C11.5962 2.8724 11.8929 2.99531 12.1117 3.2141C12.3305 3.4329 12.4534 3.72964 12.4534 4.03906V10.2609H14.7868V4.03906C14.7868 3.1108 14.418 2.22057 13.7617 1.56419C13.1053 0.907811 12.215 0.539063 11.2868 0.539063L3.73145 0.539062C2.80319 0.539063 1.91295 0.907811 1.25657 1.56419C0.600194 2.22057 0.231445 3.1108 0.231445 4.03906L0.231445 25.0391C0.231445 25.9673 0.600194 26.8576 1.25657 27.5139C1.91295 28.1703 2.80319 28.5391 3.73145 28.5391H11.2868C12.215 28.5391 13.1053 28.1703 13.7617 27.5139C14.418 26.8576 14.7868 25.9673 14.7868 25.0391V18.8172H12.4534V25.0391Z" fill="#DC3912"/>
</g>
<defs>
<clipPath id="clip0_547_1188">
<rect width="28" height="28" fill="white" transform="translate(0.231445 0.539062)"/>
</clipPath>
</defs>
</svg>
