<svg width="29" height="29" viewBox="0 0 29 29" fill="none" xmlns="http://www.w3.org/2000/svg">
<g clip-path="url(#clip0_243_1419)">
<path d="M14.4997 7.53906C13.5767 7.53906 12.6744 7.81276 11.907 8.32554C11.1396 8.83832 10.5414 9.56715 10.1882 10.4199C9.83503 11.2726 9.74261 12.2109 9.92268 13.1162C10.1027 14.0214 10.5472 14.8529 11.1998 15.5056C11.8525 16.1582 12.684 16.6027 13.5893 16.7827C14.4945 16.9628 15.4328 16.8704 16.2855 16.5172C17.1383 16.164 17.8671 15.5658 18.3799 14.7984C18.8926 14.031 19.1663 13.1287 19.1663 12.2057C19.1663 10.9681 18.6747 9.78107 17.7995 8.9059C16.9243 8.03073 15.7374 7.53906 14.4997 7.53906ZM14.4997 14.5391C14.0382 14.5391 13.5871 14.4022 13.2033 14.1458C12.8196 13.8894 12.5206 13.525 12.344 13.0987C12.1674 12.6723 12.1211 12.2031 12.2112 11.7505C12.3012 11.2979 12.5234 10.8821 12.8498 10.5558C13.1761 10.2295 13.5918 10.0073 14.0445 9.91723C14.4971 9.8272 14.9662 9.87341 15.3926 10.05C15.819 10.2266 16.1834 10.5257 16.4398 10.9094C16.6962 11.2931 16.833 11.7442 16.833 12.2057C16.833 12.8246 16.5872 13.4181 16.1496 13.8556C15.712 14.2932 15.1185 14.5391 14.4997 14.5391Z" fill="white"/>
<path d="M14.5004 28.5394C13.518 28.5445 12.5487 28.3141 11.6736 27.8675C10.7986 27.4209 10.0432 26.7712 9.47086 25.9728C5.0247 19.8396 2.76953 15.2289 2.76953 12.2679C2.76953 9.15673 4.00545 6.17295 6.20541 3.97299C8.40537 1.77303 11.3892 0.537109 14.5004 0.537109C17.6116 0.537109 20.5954 1.77303 22.7953 3.97299C24.9953 6.17295 26.2312 9.15673 26.2312 12.2679C26.2312 15.2289 23.976 19.8396 19.5299 25.9728C18.9575 26.7712 18.2022 27.4209 17.3271 27.8675C16.4521 28.3141 15.4828 28.5445 14.5004 28.5394ZM14.5004 3.08394C12.0649 3.08672 9.72989 4.05546 8.00772 5.77763C6.28555 7.4998 5.31681 9.83476 5.31403 12.2703C5.31403 14.6153 7.52253 18.9518 11.5312 24.4806C11.8715 24.9494 12.318 25.3309 12.834 25.5939C13.3501 25.857 13.9211 25.9941 14.5004 25.9941C15.0796 25.9941 15.6506 25.857 16.1667 25.5939C16.6828 25.3309 17.1292 24.9494 17.4695 24.4806C21.4782 18.9518 23.6867 14.6153 23.6867 12.2703C23.6839 9.83476 22.7152 7.4998 20.993 5.77763C19.2708 4.05546 16.9359 3.08672 14.5004 3.08394Z" fill="white"/>
</g>
<defs>
<clipPath id="clip0_243_1419">
<rect width="28" height="28" fill="white" transform="translate(0.5 0.539062)"/>
</clipPath>
</defs>
</svg>
