<svg width="14" height="15" viewBox="0 0 14 15" fill="none" xmlns="http://www.w3.org/2000/svg">
<g clip-path="url(#clip0_327_4589)">
<path d="M7.00001 3.45571C7.80542 3.45571 8.45834 2.8028 8.45834 1.99739C8.45834 1.19198 7.80542 0.539062 7.00001 0.539062C6.1946 0.539062 5.54169 1.19198 5.54169 1.99739C5.54169 2.8028 6.1946 3.45571 7.00001 3.45571Z" fill="white"/>
<path d="M7.00001 8.99721C7.80542 8.99721 8.45834 8.3443 8.45834 7.53889C8.45834 6.73348 7.80542 6.08057 7.00001 6.08057C6.1946 6.08057 5.54169 6.73348 5.54169 7.53889C5.54169 8.3443 6.1946 8.99721 7.00001 8.99721Z" fill="white"/>
<path d="M7.00001 14.5392C7.80542 14.5392 8.45834 13.8863 8.45834 13.0809C8.45834 12.2755 7.80542 11.6226 7.00001 11.6226C6.1946 11.6226 5.54169 12.2755 5.54169 13.0809C5.54169 13.8863 6.1946 14.5392 7.00001 14.5392Z" fill="white"/>
</g>
<defs>
<clipPath id="clip0_327_4589">
<rect width="14" height="14" fill="white" transform="translate(0 0.539062)"/>
</clipPath>
</defs>
</svg>
