<svg width="18" height="19" viewBox="0 0 18 19" fill="none" xmlns="http://www.w3.org/2000/svg">
<g clip-path="url(#clip0_265_5936)">
<path d="M14.25 0.0390625H3.75C2.7558 0.0402534 1.80267 0.435724 1.09966 1.13873C0.396661 1.84173 0.00119089 2.79487 0 3.78906L0 14.2891C0.00119089 15.2833 0.396661 16.2364 1.09966 16.9394C1.80267 17.6424 2.7558 18.0379 3.75 18.0391H14.25C15.2442 18.0379 16.1973 17.6424 16.9003 16.9394C17.6033 16.2364 17.9988 15.2833 18 14.2891V3.78906C17.9988 2.79487 17.6033 1.84173 16.9003 1.13873C16.1973 0.435724 15.2442 0.0402534 14.25 0.0390625ZM15 8.28906H16.5V9.78906H15V8.28906ZM15 6.78906V5.28906H16.5V6.78906H15ZM13.5 8.28906H4.5V1.53906H13.5V8.28906ZM3 9.78906H1.5V8.28906H3V9.78906ZM3 6.78906H1.5V5.28906H3V6.78906ZM1.5 11.2891H3V12.7891H1.5V11.2891ZM4.5 9.78906H13.5V16.5391H4.5V9.78906ZM15 11.2891H16.5V12.7891H15V11.2891ZM16.5 3.78906H15V1.67706C15.4372 1.83162 15.8159 2.11749 16.0844 2.49554C16.3529 2.87359 16.4981 3.32537 16.5 3.78906ZM3 1.67706V3.78906H1.5C1.50192 3.32537 1.64706 2.87359 1.91557 2.49554C2.18407 2.11749 2.56282 1.83162 3 1.67706ZM1.5 14.2891H3V16.4011C2.56282 16.2465 2.18407 15.9606 1.91557 15.5826C1.64706 15.2045 1.50192 14.7528 1.5 14.2891ZM15 16.4011V14.2891H16.5C16.4981 14.7528 16.3529 15.2045 16.0844 15.5826C15.8159 15.9606 15.4372 16.2465 15 16.4011Z" fill="#D0CED4"/>
</g>
<defs>
<clipPath id="clip0_265_5936">
<rect width="18" height="18" fill="white" transform="translate(0 0.0390625)"/>
</clipPath>
</defs>
</svg>
