<svg width="33" height="33" viewBox="0 0 33 33" fill="none" xmlns="http://www.w3.org/2000/svg">
<g clip-path="url(#clip0_1_3084)">
<path d="M17.1467 33C14.9787 33 12.9334 32.048 11.5361 30.388C9.48273 30.624 7.36673 29.8467 5.8334 28.3147C4.3014 26.7813 3.52806 24.6613 3.7134 22.4987C2.09873 21.2133 1.14673 19.168 1.14673 17C1.14673 14.832 2.09873 12.7867 3.76006 11.3893C3.52673 9.34 4.30006 7.22 5.8334 5.68667C7.36673 4.152 9.48273 3.38 11.6481 3.56667C12.9334 1.95333 14.9787 1 17.1467 1C19.3147 1 21.3601 1.952 22.7574 3.612C24.8134 3.37733 26.9267 4.15333 28.4601 5.68533C29.9921 7.21867 30.7654 9.33867 30.5801 11.5013C32.1947 12.7867 33.1467 14.832 33.1467 17C33.1467 19.168 32.1947 21.2133 30.5334 22.6107C30.7667 24.66 29.9934 26.78 28.4601 28.3133C26.9254 29.8467 24.8054 30.6187 22.6454 30.4333C21.3601 32.0467 19.3147 33 17.1467 33ZM11.6441 27.768C12.3921 27.768 13.0854 28.0893 13.5747 28.6693C14.4654 29.7267 15.7667 30.3333 17.1467 30.3333C18.5267 30.3333 19.8281 29.7267 20.7187 28.6693C21.2561 28.0307 22.0387 27.708 22.8734 27.776C24.2521 27.892 25.5987 27.4027 26.5747 26.4267C27.5494 25.452 28.0414 24.1027 27.9241 22.7253C27.8521 21.8933 28.1774 21.108 28.8174 20.5693C29.8734 19.68 30.4801 18.3773 30.4801 16.9987C30.4801 15.62 29.8734 14.3173 28.8174 13.428C28.1787 12.8907 27.8521 12.104 27.9241 11.272C28.0414 9.89467 27.5507 8.54533 26.5747 7.57067C25.5987 6.596 24.2441 6.10933 22.8747 6.22133C22.0401 6.29733 21.2561 5.96667 20.7187 5.32933C19.8281 4.272 18.5267 3.66533 17.1467 3.66533C15.7667 3.66533 14.4654 4.272 13.5747 5.32933C13.0361 5.968 12.2507 6.288 11.4201 6.22267C10.0347 6.10267 8.69473 6.596 7.71873 7.572C6.74406 8.54667 6.25206 9.896 6.3694 11.2733C6.4414 12.1053 6.11606 12.8907 5.47606 13.4293C4.42006 14.3187 3.8134 15.6213 3.8134 17C3.8134 18.3787 4.42006 19.6813 5.47606 20.5707C6.11473 21.108 6.4414 21.8947 6.3694 22.7267C6.25206 24.104 6.74273 25.4533 7.71873 26.428C8.69473 27.404 10.0561 27.892 11.4187 27.7773C11.4947 27.7707 11.5694 27.768 11.6441 27.768ZM13.1467 11.6667C12.4107 11.6667 11.8134 12.264 11.8134 13C11.8134 13.736 12.4107 14.3333 13.1467 14.3333C13.8827 14.3333 14.4801 13.736 14.4801 13C14.4801 12.264 13.8827 11.6667 13.1467 11.6667ZM21.1467 19.6667C20.4107 19.6667 19.8134 20.264 19.8134 21C19.8134 21.736 20.4107 22.3333 21.1467 22.3333C21.8827 22.3333 22.4801 21.736 22.4801 21C22.4801 20.264 21.8827 19.6667 21.1467 19.6667ZM15.5894 21.74L20.9227 13.74C21.3321 13.128 21.1667 12.2987 20.5534 11.8907C19.9387 11.48 19.1121 11.648 18.7041 12.26L13.3707 20.26C12.9614 20.872 13.1267 21.7013 13.7401 22.1093C13.9681 22.2613 14.2241 22.3333 14.4787 22.3333C14.9094 22.3333 15.3334 22.1253 15.5894 21.74Z" fill="#C12500"/>
</g>
<defs>
<clipPath id="clip0_1_3084">
<rect width="32" height="32" fill="white" transform="translate(0.646729 0.960938)"/>
</clipPath>
</defs>
</svg>
