<svg width="26" height="26" viewBox="0 0 26 26" fill="none" xmlns="http://www.w3.org/2000/svg">
<path d="M14.013 1.69597C14.013 1.42195 14.1219 1.15916 14.3157 0.965397C14.5094 0.771636 14.7722 0.662783 15.0462 0.662783C17.7855 0.665791 20.4117 1.75529 22.3487 3.69225C24.2856 5.62921 25.3751 8.25542 25.3781 10.9947C25.3781 11.2687 25.2693 11.5315 25.0755 11.7253C24.8818 11.919 24.619 12.0279 24.3449 12.0279C24.0709 12.0279 23.8081 11.919 23.6144 11.7253C23.4206 11.5315 23.3118 11.2687 23.3118 10.9947C23.3093 8.80329 22.4377 6.70235 20.8881 5.1528C19.3386 3.60324 17.2376 2.73162 15.0462 2.72916C14.7722 2.72916 14.5094 2.62031 14.3157 2.42655C14.1219 2.23279 14.013 1.96999 14.013 1.69597ZM15.0462 6.86192C16.1423 6.86192 17.1935 7.29734 17.9685 8.07238C18.7436 8.84742 19.179 9.89861 19.179 10.9947C19.179 11.2687 19.2878 11.5315 19.4816 11.7253C19.6754 11.919 19.9382 12.0279 20.2122 12.0279C20.4862 12.0279 20.749 11.919 20.9428 11.7253C21.1365 11.5315 21.2454 11.2687 21.2454 10.9947C21.2437 9.35108 20.5901 7.77525 19.4279 6.61304C18.2657 5.45083 16.6898 4.79718 15.0462 4.79554C14.7722 4.79554 14.5094 4.9044 14.3157 5.09816C14.1219 5.29192 14.013 5.55471 14.013 5.82873C14.013 6.10275 14.1219 6.36555 14.3157 6.55931C14.5094 6.75307 14.7722 6.86192 15.0462 6.86192ZM24.441 17.9574C25.0398 18.5578 25.376 19.3711 25.376 20.219C25.376 21.0669 25.0398 21.8803 24.441 22.4807L23.5008 23.5645C15.039 31.6657 -5.55248 11.0794 2.42375 2.59072L3.61192 1.55753C4.213 0.975506 5.01906 0.653535 5.8557 0.661269C6.69235 0.669003 7.49232 1.00582 8.08254 1.59885C8.11456 1.63088 10.0291 4.11777 10.0291 4.11777C10.5971 4.71457 10.9134 5.50734 10.912 6.33128C10.9107 7.15522 10.5919 7.94695 10.0218 8.54189L8.8254 10.0462C9.48752 11.655 10.461 13.1171 11.6899 14.3485C12.9189 15.5799 14.379 16.5564 15.9864 17.2217L17.5001 16.0181C18.0951 15.4485 18.8867 15.13 19.7104 15.1289C20.5341 15.1277 21.3265 15.4439 21.9231 16.0119C21.9231 16.0119 24.409 17.9253 24.441 17.9574ZM23.0194 19.4596C23.0194 19.4596 20.5469 17.5575 20.5149 17.5255C20.3021 17.3144 20.0145 17.196 19.7147 17.196C19.415 17.196 19.1273 17.3144 18.9145 17.5255C18.8866 17.5544 16.8027 19.2147 16.8027 19.2147C16.6622 19.3265 16.4951 19.3998 16.3177 19.4273C16.1404 19.4549 15.9589 19.4357 15.7912 19.3718C13.7087 18.5965 11.8172 17.3826 10.2448 15.8125C8.67242 14.2424 7.4558 12.3527 6.6774 10.2715C6.60838 10.1014 6.58588 9.91613 6.61221 9.73454C6.63854 9.55296 6.71275 9.38166 6.82721 9.23826C6.82721 9.23826 8.48755 7.15328 8.51544 7.12642C8.72649 6.91357 8.8449 6.62596 8.8449 6.32622C8.8449 6.02647 8.72649 5.73886 8.51544 5.52601C8.48341 5.49501 6.58131 3.02052 6.58131 3.02052C6.36527 2.82681 6.08332 2.72306 5.79324 2.73055C5.50317 2.73805 5.22694 2.85621 5.02119 3.06082L3.83302 4.09401C-1.99624 11.1032 15.848 27.9576 21.9903 22.1531L22.9315 21.0683C23.1521 20.864 23.2846 20.5819 23.301 20.2817C23.3174 19.9815 23.2164 19.6867 23.0194 19.4596Z" fill="#DC3912"/>
</svg>
