<svg width="19" height="19" viewBox="0 0 19 19" fill="none" xmlns="http://www.w3.org/2000/svg">
<path d="M17.125 8.16406H10.375V1.41406C10.375 0.792746 9.87132 0.289062 9.25 0.289062C8.62868 0.289062 8.125 0.792746 8.125 1.41406V8.16406H1.375C0.753684 8.16406 0.25 8.66775 0.25 9.28906C0.25 9.91038 0.753684 10.4141 1.375 10.4141H8.125V17.1641C8.125 17.7854 8.62868 18.2891 9.25 18.2891C9.87132 18.2891 10.375 17.7854 10.375 17.1641L10.375 10.4141L17.125 10.4141C17.7463 10.4141 18.25 9.91038 18.25 9.28906C18.25 8.66775 17.7463 8.16406 17.125 8.16406Z" fill="white"/>
</svg>
