<svg width="19" height="19" viewBox="0 0 19 19" fill="none" xmlns="http://www.w3.org/2000/svg">
<g clip-path="url(#clip0_267_5947)">
<path d="M9.34925 16L6.04122 10.2241V9.45396H6.42629C7.04472 9.45396 7.56397 9.39561 7.98403 9.27893C8.41577 9.16224 8.75416 8.96971 8.9992 8.70134C9.24423 8.43296 9.39009 8.0654 9.43677 7.59866H6.04122V6.47848H9.41926C9.33758 6.04675 9.17422 5.69669 8.92918 5.42831C8.68415 5.14827 8.35159 4.94407 7.93153 4.81572C7.52313 4.68736 7.02138 4.62319 6.42629 4.62319H6.04122V3.50301H13.2874V4.62319H9.97935C10.2477 4.84489 10.4694 5.10743 10.6445 5.41081C10.8195 5.71419 10.9303 6.07008 10.977 6.47848H13.2874V7.59866H11.012C10.9303 8.45046 10.6036 9.11557 10.0319 9.59398C9.47177 10.0607 8.72499 10.3583 7.7915 10.4866L11.1345 16H9.34925Z" fill="#D0CED4"/>
</g>
<defs>
<clipPath id="clip0_267_5947">
<rect width="18" height="18" fill="white" transform="translate(0.666626 0.5)"/>
</clipPath>
</defs>
</svg>
