<svg width="28" height="29" viewBox="0 0 28 29" fill="none" xmlns="http://www.w3.org/2000/svg">
<path d="M27.6728 26.5245L20.7147 19.5663C22.6108 17.2473 23.5431 14.2881 23.3187 11.301C23.0942 8.31379 21.7302 5.52716 19.5088 3.51747C17.2874 1.50778 14.3786 0.428776 11.3839 0.503652C8.38926 0.578527 5.53795 1.80155 3.41975 3.91975C1.30155 6.03795 0.0785273 8.88926 0.00365169 11.8839C-0.0712239 14.8786 1.00778 17.7874 3.01747 20.0088C5.02716 22.2302 7.81379 23.5942 10.801 23.8187C13.7881 24.0431 16.7473 23.1108 19.0663 21.2147L26.0245 28.1728C26.2443 28.3851 26.5388 28.5026 26.8444 28.5C27.1501 28.4973 27.4424 28.3747 27.6586 28.1586C27.8747 27.9424 27.9973 27.6501 28 27.3444C28.0026 27.0388 27.8851 26.7443 27.6728 26.5245ZM11.6944 21.5201C9.84996 21.5201 8.04693 20.9731 6.51334 19.9484C4.97974 18.9237 3.78444 17.4672 3.0786 15.7632C2.37277 14.0591 2.18809 12.1841 2.54792 10.3751C2.90775 8.56605 3.79594 6.90437 5.10016 5.60016C6.40437 4.29594 8.06605 3.40775 9.87505 3.04792C11.6841 2.68809 13.5591 2.87277 15.2632 3.5786C16.9672 4.28444 18.4237 5.47974 19.4484 7.01334C20.4731 8.54693 21.0201 10.35 21.0201 12.1944C21.0173 14.6669 20.0339 17.0373 18.2856 18.7856C16.5373 20.5339 14.1669 21.5173 11.6944 21.5201Z" fill="white"/>
</svg>
