<svg width="29" height="29" viewBox="0 0 29 29" fill="none" xmlns="http://www.w3.org/2000/svg">
<g clip-path="url(#clip0_542_5024)">
<path d="M19.8848 14.5391C19.8848 15.1842 19.3622 15.7057 18.7182 15.7057H15.2182V19.2057C15.2182 19.8509 14.6955 20.3724 14.0515 20.3724C13.4075 20.3724 12.8848 19.8509 12.8848 19.2057V15.7057H9.38485C8.74085 15.7057 8.21818 15.1842 8.21818 14.5391C8.21818 13.8939 8.74085 13.3724 9.38485 13.3724H12.8848V9.8724C12.8848 9.22723 13.4075 8.70573 14.0515 8.70573C14.6955 8.70573 15.2182 9.22723 15.2182 9.8724V13.3724H18.7182C19.3622 13.3724 19.8848 13.8939 19.8848 14.5391ZM28.0515 6.3724V22.7057C28.0515 25.9222 25.4347 28.5391 22.2182 28.5391H5.88485C2.66835 28.5391 0.0515137 25.9222 0.0515137 22.7057V6.3724C0.0515137 3.1559 2.66835 0.539062 5.88485 0.539062H22.2182C25.4347 0.539062 28.0515 3.1559 28.0515 6.3724ZM25.7182 6.3724C25.7182 4.44273 24.1478 2.8724 22.2182 2.8724H5.88485C3.95518 2.8724 2.38485 4.44273 2.38485 6.3724V22.7057C2.38485 24.6354 3.95518 26.2057 5.88485 26.2057H22.2182C24.1478 26.2057 25.7182 24.6354 25.7182 22.7057V6.3724Z" fill="#DC3912"/>
</g>
<defs>
<clipPath id="clip0_542_5024">
<rect width="28" height="28" fill="white" transform="translate(0.0515137 0.539062)"/>
</clipPath>
</defs>
</svg>
