<svg width="24" height="24" viewBox="0 0 24 24" fill="none" xmlns="http://www.w3.org/2000/svg">
<path d="M4.23741 11.027C9.06923 9.05126 12.2912 7.74875 13.9033 7.11944C18.5063 5.32264 19.4627 5.01052 20.0861 5.0001C20.2232 4.99794 20.5298 5.02983 20.7284 5.18106C20.8961 5.30876 20.9422 5.48125 20.9643 5.60232C20.9864 5.72339 21.0139 5.99919 20.992 6.21469C20.7426 8.67437 19.6633 14.6434 19.1142 17.3983C18.8818 18.564 18.4244 18.9548 17.9815 18.9931C17.0189 19.0762 16.288 18.3961 15.3558 17.8226C13.897 16.9251 13.0729 16.3664 11.6569 15.4907C10.0205 14.4786 11.0813 13.9224 12.0139 13.0133C12.258 12.7754 16.4988 9.15516 16.5809 8.82675C16.5912 8.78568 16.6007 8.63258 16.5038 8.55173C16.4069 8.47089 16.2639 8.49853 16.1606 8.52052C16.0143 8.55169 13.6839 9.9973 9.16938 12.8573C8.5079 13.2836 7.90875 13.4913 7.37193 13.4805C6.78013 13.4685 5.64175 13.1664 4.79548 12.9083C3.75749 12.5916 2.93252 12.4242 3.00436 11.8864C3.04178 11.6063 3.45279 11.3198 4.23741 11.027Z" fill="white"/>
</svg>
