<svg width="28" height="29" viewBox="0 0 28 29" fill="none" xmlns="http://www.w3.org/2000/svg">
<g clip-path="url(#clip0_652_2436)">
<path d="M1.16667 6.08103H4.35867C4.60908 7.00239 5.1557 7.81574 5.91421 8.39562C6.67273 8.97549 7.60097 9.28967 8.55575 9.28967C9.51053 9.28967 10.4388 8.97549 11.1973 8.39562C11.9558 7.81574 12.5024 7.00239 12.7528 6.08103H26.8333C27.1428 6.08103 27.4395 5.95812 27.6583 5.73932C27.8771 5.52053 28 5.22378 28 4.91436C28 4.60495 27.8771 4.3082 27.6583 4.08941C27.4395 3.87061 27.1428 3.7477 26.8333 3.7477H12.7528C12.5024 2.82634 11.9558 2.01299 11.1973 1.43311C10.4388 0.853236 9.51053 0.539063 8.55575 0.539062C7.60097 0.539063 6.67273 0.853236 5.91421 1.43311C5.1557 2.01299 4.60908 2.82634 4.35867 3.7477H1.16667C0.857247 3.7477 0.560501 3.87061 0.341709 4.08941C0.122916 4.3082 0 4.60495 0 4.91436C0 5.22378 0.122916 5.52053 0.341709 5.73932C0.560501 5.95812 0.857247 6.08103 1.16667 6.08103ZM8.55517 2.8727C8.95897 2.8727 9.35371 2.99244 9.68946 3.21678C10.0252 3.44112 10.2869 3.75999 10.4414 4.13305C10.5959 4.50612 10.6364 4.91663 10.5576 5.31267C10.4788 5.70872 10.2844 6.07251 9.99884 6.35804C9.71331 6.64357 9.34952 6.83802 8.95348 6.9168C8.55743 6.99558 8.14692 6.95515 7.77385 6.80062C7.40079 6.64609 7.08192 6.3844 6.85758 6.04865C6.63324 5.7129 6.5135 5.31817 6.5135 4.91436C6.51412 4.37307 6.72942 3.85412 7.11217 3.47137C7.49493 3.08862 8.01387 2.87332 8.55517 2.8727Z" fill="#DC3912"/>
<path d="M26.8333 13.3724H23.6413C23.3913 12.4508 22.8449 11.6372 22.0865 11.057C21.328 10.4769 20.3997 10.1626 19.4448 10.1626C18.49 10.1626 17.5616 10.4769 16.8032 11.057C16.0447 11.6372 15.4983 12.4508 15.2483 13.3724H1.16667C0.857247 13.3724 0.560501 13.4953 0.341709 13.7141C0.122916 13.9329 0 14.2296 0 14.539C0 14.8485 0.122916 15.1452 0.341709 15.364C0.560501 15.5828 0.857247 15.7057 1.16667 15.7057H15.2483C15.4983 16.6273 16.0447 17.4409 16.8032 18.021C17.5616 18.6012 18.49 18.9155 19.4448 18.9155C20.3997 18.9155 21.328 18.6012 22.0865 18.021C22.8449 17.4409 23.3913 16.6273 23.6413 15.7057H26.8333C27.1428 15.7057 27.4395 15.5828 27.6583 15.364C27.8771 15.1452 28 14.8485 28 14.539C28 14.2296 27.8771 13.9329 27.6583 13.7141C27.4395 13.4953 27.1428 13.3724 26.8333 13.3724ZM19.4448 16.5807C19.041 16.5807 18.6463 16.461 18.3105 16.2366C17.9748 16.0123 17.7131 15.6934 17.5586 15.3203C17.404 14.9473 17.3636 14.5368 17.4424 14.1407C17.5212 13.7447 17.7156 13.3809 18.0012 13.0954C18.2867 12.8098 18.6505 12.6154 19.0465 12.5366C19.4426 12.4578 19.8531 12.4983 20.2261 12.6528C20.5992 12.8073 20.9181 13.069 21.1424 13.4047C21.3668 13.7405 21.4865 14.1352 21.4865 14.539C21.4859 15.0803 21.2706 15.5993 20.8878 15.982C20.5051 16.3648 19.9861 16.5801 19.4448 16.5807Z" fill="#FF6C49"/>
<path d="M26.8333 22.9972H12.7528C12.5024 22.0759 11.9558 21.2625 11.1973 20.6826C10.4388 20.1027 9.51053 19.7886 8.55575 19.7886C7.60097 19.7886 6.67273 20.1027 5.91421 20.6826C5.1557 21.2625 4.60908 22.0759 4.35867 22.9972H1.16667C0.857247 22.9972 0.560501 23.1201 0.341709 23.3389C0.122916 23.5577 0 23.8545 0 24.1639C0 24.4733 0.122916 24.77 0.341709 24.9888C0.560501 25.2076 0.857247 25.3305 1.16667 25.3305H4.35867C4.60908 26.2519 5.1557 27.0653 5.91421 27.6451C6.67273 28.225 7.60097 28.5392 8.55575 28.5392C9.51053 28.5392 10.4388 28.225 11.1973 27.6451C11.9558 27.0653 12.5024 26.2519 12.7528 25.3305H26.8333C27.1428 25.3305 27.4395 25.2076 27.6583 24.9888C27.8771 24.77 28 24.4733 28 24.1639C28 23.8545 27.8771 23.5577 27.6583 23.3389C27.4395 23.1201 27.1428 22.9972 26.8333 22.9972ZM8.55517 26.2055C8.15136 26.2055 7.75663 26.0858 7.42088 25.8615C7.08513 25.6371 6.82344 25.3183 6.66891 24.9452C6.51438 24.5721 6.47395 24.1616 6.55273 23.7656C6.63151 23.3695 6.82596 23.0057 7.11149 22.7202C7.39702 22.4347 7.76081 22.2402 8.15686 22.1614C8.5529 22.0827 8.96341 22.1231 9.33648 22.2776C9.70954 22.4322 10.0284 22.6938 10.2527 23.0296C10.4771 23.3653 10.5968 23.7601 10.5968 24.1639C10.5959 24.7051 10.3805 25.2238 9.99782 25.6065C9.61513 25.9892 9.09637 26.2046 8.55517 26.2055Z" fill="#DC3912"/>
</g>
<defs>
<clipPath id="clip0_652_2436">
<rect width="28" height="28" fill="white" transform="translate(0 0.539062)"/>
</clipPath>
</defs>
</svg>
