<svg width="29" height="29" viewBox="0 0 29 29" fill="none" xmlns="http://www.w3.org/2000/svg">
<g clip-path="url(#clip0_547_1170)">
<path d="M1.39811 6.08103H4.59011C4.84052 7.00239 5.38715 7.81574 6.14566 8.39562C6.90417 8.97549 7.83242 9.28967 8.7872 9.28967C9.74197 9.28967 10.6702 8.97549 11.4287 8.39562C12.1872 7.81574 12.7339 7.00239 12.9843 6.08103H27.0648C27.3742 6.08103 27.6709 5.95812 27.8897 5.73932C28.1085 5.52053 28.2314 5.22378 28.2314 4.91436C28.2314 4.60495 28.1085 4.3082 27.8897 4.08941C27.6709 3.87061 27.3742 3.7477 27.0648 3.7477H12.9843C12.7339 2.82634 12.1872 2.01299 11.4287 1.43311C10.6702 0.853236 9.74197 0.539063 8.7872 0.539062C7.83242 0.539063 6.90417 0.853236 6.14566 1.43311C5.38715 2.01299 4.84052 2.82634 4.59011 3.7477H1.39811C1.08869 3.7477 0.791946 3.87061 0.573154 4.08941C0.354362 4.3082 0.231445 4.60495 0.231445 4.91436C0.231445 5.22378 0.354362 5.52053 0.573154 5.73932C0.791946 5.95812 1.08869 6.08103 1.39811 6.08103ZM8.78661 2.8727C9.19042 2.8727 9.58515 2.99244 9.9209 3.21678C10.2567 3.44112 10.5183 3.75999 10.6729 4.13305C10.8274 4.50612 10.8678 4.91663 10.789 5.31267C10.7103 5.70872 10.5158 6.07251 10.2303 6.35804C9.94476 6.64357 9.58097 6.83802 9.18492 6.9168C8.78888 6.99558 8.37837 6.95515 8.0053 6.80062C7.63223 6.64609 7.31337 6.3844 7.08903 6.04865C6.86469 5.7129 6.74495 5.31817 6.74495 4.91436C6.74556 4.37307 6.96087 3.85412 7.34362 3.47137C7.72637 3.08862 8.24532 2.87332 8.78661 2.8727Z" fill="#DC3912"/>
<path d="M27.0648 13.3719H23.8728C23.6228 12.4503 23.0764 11.6367 22.3179 11.0565C21.5595 10.4764 20.6312 10.1621 19.6763 10.1621C18.7214 10.1621 17.7931 10.4764 17.0346 11.0565C16.2762 11.6367 15.7298 12.4503 15.4798 13.3719H1.39811C1.08869 13.3719 0.791946 13.4948 0.573154 13.7136C0.354362 13.9324 0.231445 14.2291 0.231445 14.5385C0.231445 14.848 0.354362 15.1447 0.573154 15.3635C0.791946 15.5823 1.08869 15.7052 1.39811 15.7052H15.4798C15.7298 16.6268 16.2762 17.4404 17.0346 18.0206C17.7931 18.6007 18.7214 18.915 19.6763 18.915C20.6312 18.915 21.5595 18.6007 22.3179 18.0206C23.0764 17.4404 23.6228 16.6268 23.8728 15.7052H27.0648C27.3742 15.7052 27.6709 15.5823 27.8897 15.3635C28.1085 15.1447 28.2314 14.848 28.2314 14.5385C28.2314 14.2291 28.1085 13.9324 27.8897 13.7136C27.6709 13.4948 27.3742 13.3719 27.0648 13.3719ZM19.6763 16.5802C19.2725 16.5802 18.8777 16.4605 18.542 16.2361C18.2062 16.0118 17.9446 15.6929 17.79 15.3199C17.6355 14.9468 17.5951 14.5363 17.6738 14.1402C17.7526 13.7442 17.9471 13.3804 18.2326 13.0949C18.5181 12.8093 18.8819 12.6149 19.278 12.5361C19.674 12.4573 20.0845 12.4978 20.4576 12.6523C20.8307 12.8068 21.1495 13.0685 21.3739 13.4043C21.5982 13.74 21.7179 14.1347 21.7179 14.5385C21.7173 15.0798 21.502 15.5988 21.1193 15.9815C20.7365 16.3643 20.2176 16.5796 19.6763 16.5802Z" fill="#DC3912"/>
<path d="M27.0648 22.9977H12.9843C12.7339 22.0763 12.1872 21.263 11.4287 20.6831C10.6702 20.1032 9.74197 19.7891 8.7872 19.7891C7.83242 19.7891 6.90417 20.1032 6.14566 20.6831C5.38715 21.263 4.84052 22.0763 4.59011 22.9977H1.39811C1.08869 22.9977 0.791946 23.1206 0.573154 23.3394C0.354362 23.5582 0.231445 23.8549 0.231445 24.1644C0.231445 24.4738 0.354362 24.7705 0.573154 24.9893C0.791946 25.2081 1.08869 25.331 1.39811 25.331H4.59011C4.84052 26.2524 5.38715 27.0657 6.14566 27.6456C6.90417 28.2255 7.83242 28.5397 8.7872 28.5397C9.74197 28.5397 10.6702 28.2255 11.4287 27.6456C12.1872 27.0657 12.7339 26.2524 12.9843 25.331H27.0648C27.3742 25.331 27.6709 25.2081 27.8897 24.9893C28.1085 24.7705 28.2314 24.4738 28.2314 24.1644C28.2314 23.8549 28.1085 23.5582 27.8897 23.3394C27.6709 23.1206 27.3742 22.9977 27.0648 22.9977ZM8.78661 26.206C8.38281 26.206 7.98807 26.0863 7.65232 25.8619C7.31657 25.6376 7.05489 25.3187 6.90036 24.9457C6.74583 24.5726 6.7054 24.1621 6.78418 23.7661C6.86295 23.37 7.0574 23.0062 7.34294 22.7207C7.62847 22.4352 7.99226 22.2407 8.3883 22.1619C8.78435 22.0832 9.19486 22.1236 9.56792 22.2781C9.94099 22.4326 10.2599 22.6943 10.4842 23.0301C10.7085 23.3658 10.8283 23.7606 10.8283 24.1644C10.8274 24.7056 10.612 25.2243 10.2293 25.607C9.84658 25.9897 9.32781 26.2051 8.78661 26.206Z" fill="#DC3912"/>
</g>
<defs>
<clipPath id="clip0_547_1170">
<rect width="28" height="28" fill="white" transform="translate(0.231445 0.539062)"/>
</clipPath>
</defs>
</svg>
