<svg width="29" height="29" viewBox="0 0 29 29" fill="none" xmlns="http://www.w3.org/2000/svg">
<g clip-path="url(#clip0_69_10936)">
<path d="M1.21818 6.08103H4.41018C4.66059 7.00239 5.20722 7.81574 5.96573 8.39562C6.72424 8.97549 7.65249 9.28967 8.60726 9.28967C9.56204 9.28967 10.4903 8.97549 11.2488 8.39562C12.0073 7.81574 12.5539 7.00239 12.8043 6.08103H26.8848C27.1943 6.08103 27.491 5.95812 27.7098 5.73932C27.9286 5.52053 28.0515 5.22378 28.0515 4.91436C28.0515 4.60495 27.9286 4.3082 27.7098 4.08941C27.491 3.87061 27.1943 3.7477 26.8848 3.7477H12.8043C12.5539 2.82634 12.0073 2.01299 11.2488 1.43311C10.4903 0.853236 9.56204 0.539063 8.60726 0.539062C7.65249 0.539063 6.72424 0.853236 5.96573 1.43311C5.20722 2.01299 4.66059 2.82634 4.41018 3.7477H1.21818C0.908761 3.7477 0.612015 3.87061 0.393222 4.08941C0.17443 4.3082 0.0515137 4.60495 0.0515137 4.91436C0.0515137 5.22378 0.17443 5.52053 0.393222 5.73932C0.612015 5.95812 0.908761 6.08103 1.21818 6.08103ZM8.60668 2.8727C9.01048 2.8727 9.40522 2.99244 9.74097 3.21678C10.0767 3.44112 10.3384 3.75999 10.4929 4.13305C10.6475 4.50612 10.6879 4.91663 10.6091 5.31267C10.5303 5.70872 10.3359 6.07251 10.0504 6.35804C9.76482 6.64357 9.40103 6.83802 9.00499 6.9168C8.60894 6.99558 8.19843 6.95515 7.82537 6.80062C7.4523 6.64609 7.13344 6.3844 6.9091 6.04865C6.68476 5.7129 6.56501 5.31817 6.56501 4.91436C6.56563 4.37307 6.78093 3.85412 7.16369 3.47137C7.54644 3.08862 8.06539 2.87332 8.60668 2.8727Z" fill="#DC3912"/>
<path d="M26.8848 13.3724H23.6928C23.4429 12.4508 22.8964 11.6372 22.138 11.057C21.3795 10.4769 20.4512 10.1626 19.4963 10.1626C18.5415 10.1626 17.6131 10.4769 16.8547 11.057C16.0962 11.6372 15.5498 12.4508 15.2998 13.3724H1.21818C0.908761 13.3724 0.612015 13.4953 0.393222 13.7141C0.17443 13.9329 0.0515137 14.2296 0.0515137 14.539C0.0515137 14.8485 0.17443 15.1452 0.393222 15.364C0.612015 15.5828 0.908761 15.7057 1.21818 15.7057H15.2998C15.5498 16.6273 16.0962 17.4409 16.8547 18.021C17.6131 18.6012 18.5415 18.9155 19.4963 18.9155C20.4512 18.9155 21.3795 18.6012 22.138 18.021C22.8964 17.4409 23.4429 16.6273 23.6928 15.7057H26.8848C27.1943 15.7057 27.491 15.5828 27.7098 15.364C27.9286 15.1452 28.0515 14.8485 28.0515 14.539C28.0515 14.2296 27.9286 13.9329 27.7098 13.7141C27.491 13.4953 27.1943 13.3724 26.8848 13.3724ZM19.4963 16.5807C19.0925 16.5807 18.6978 16.461 18.3621 16.2366C18.0263 16.0123 17.7646 15.6934 17.6101 15.3203C17.4556 14.9473 17.4151 14.5368 17.4939 14.1407C17.5727 13.7447 17.7671 13.3809 18.0527 13.0954C18.3382 12.8098 18.702 12.6154 19.098 12.5366C19.4941 12.4578 19.9046 12.4983 20.2777 12.6528C20.6507 12.8073 20.9696 13.069 21.1939 13.4047C21.4183 13.7405 21.538 14.1352 21.538 14.539C21.5374 15.0803 21.3221 15.5993 20.9393 15.982C20.5566 16.3648 20.0376 16.5801 19.4963 16.5807Z" fill="#DC3912"/>
<path d="M26.8848 22.9972H12.8043C12.5539 22.0759 12.0073 21.2625 11.2488 20.6826C10.4903 20.1027 9.56204 19.7886 8.60726 19.7886C7.65249 19.7886 6.72424 20.1027 5.96573 20.6826C5.20722 21.2625 4.66059 22.0759 4.41018 22.9972H1.21818C0.908761 22.9972 0.612015 23.1201 0.393222 23.3389C0.17443 23.5577 0.0515137 23.8545 0.0515137 24.1639C0.0515137 24.4733 0.17443 24.77 0.393222 24.9888C0.612015 25.2076 0.908761 25.3305 1.21818 25.3305H4.41018C4.66059 26.2519 5.20722 27.0653 5.96573 27.6451C6.72424 28.225 7.65249 28.5392 8.60726 28.5392C9.56204 28.5392 10.4903 28.225 11.2488 27.6451C12.0073 27.0653 12.5539 26.2519 12.8043 25.3305H26.8848C27.1943 25.3305 27.491 25.2076 27.7098 24.9888C27.9286 24.77 28.0515 24.4733 28.0515 24.1639C28.0515 23.8545 27.9286 23.5577 27.7098 23.3389C27.491 23.1201 27.1943 22.9972 26.8848 22.9972ZM8.60668 26.2055C8.20288 26.2055 7.80814 26.0858 7.47239 25.8615C7.13664 25.6371 6.87496 25.3183 6.72043 24.9452C6.5659 24.5721 6.52547 24.1616 6.60424 23.7656C6.68302 23.3695 6.87747 23.0057 7.163 22.7202C7.44854 22.4347 7.81233 22.2402 8.20837 22.1614C8.60441 22.0827 9.01493 22.1231 9.38799 22.2776C9.76106 22.4322 10.0799 22.6938 10.3043 23.0296C10.5286 23.3653 10.6483 23.7601 10.6483 24.1639C10.6474 24.7051 10.432 25.2238 10.0493 25.6065C9.66665 25.9892 9.14788 26.2046 8.60668 26.2055Z" fill="#DC3912"/>
</g>
<defs>
<clipPath id="clip0_69_10936">
<rect width="28" height="28" fill="white" transform="translate(0.0515137 0.539062)"/>
</clipPath>
</defs>
</svg>
