<svg width="28" height="28" viewBox="0 0 28 28" fill="none" xmlns="http://www.w3.org/2000/svg">
<g clip-path="url(#clip0_69_10088)">
<path d="M23.8764 23.8521C23.8764 24.7836 23.1204 25.5396 22.1889 25.5396C21.2574 25.5396 20.5014 24.7836 20.5014 23.8521C20.5014 22.9206 21.2574 22.1646 22.1889 22.1646C23.1204 22.1646 23.8764 22.9206 23.8764 23.8521ZM1.93889 4.16455C1.00739 4.16455 0.251395 4.92055 0.251395 5.85205C0.251395 6.78355 1.00739 7.53955 1.93889 7.53955C2.87039 7.53955 3.62639 6.78355 3.62639 5.85205C3.62639 4.92055 2.87039 4.16455 1.93889 4.16455ZM7.56389 0.789551C6.63239 0.789551 5.87639 1.54555 5.87639 2.47705C5.87639 3.40855 6.63239 4.16455 7.56389 4.16455C8.49539 4.16455 9.25139 3.40855 9.25139 2.47705C9.25139 1.54555 8.49539 0.789551 7.56389 0.789551ZM26.1264 10.9123C26.5989 10.9123 27.0219 11.2082 27.1839 11.6514C27.3459 12.0947 27.2131 12.5931 26.852 12.8968L24.1914 15.0647L25.2916 18.4172C25.4424 18.8706 25.2894 19.3701 24.9103 19.6625C24.53 19.9539 24.0091 19.9742 23.6098 19.7143L20.5126 17.6972L17.4661 19.7368C17.276 19.8639 17.0578 19.9269 16.8395 19.9269C16.6021 19.9269 16.3636 19.8527 16.1645 19.7031C15.782 19.4173 15.6223 18.9201 15.7663 18.4656L16.8238 15.0737L14.1496 12.8979C13.7896 12.5931 13.658 12.0958 13.8211 11.6526C13.9843 11.2104 14.4061 10.9157 14.8775 10.9157L18.2514 10.9157L19.4461 7.70718C19.6104 7.2673 20.0311 6.9748 20.5003 6.9748C20.9694 6.9748 21.3901 7.26618 21.5544 7.70718L22.7491 10.9157H26.1241L26.1264 10.9123ZM8.85652 11.1418C9.13664 10.8437 9.42239 10.5489 9.71602 10.2542C12.6534 7.3168 15.8833 5.04655 18.8105 3.86305C21.3519 2.8348 23.4219 2.77293 24.3444 3.69543C25.2545 4.60555 25.016 6.3583 24.7933 7.32243C24.6526 7.92768 25.0295 8.5318 25.6359 8.67243C26.2456 8.8153 26.8453 8.43505 26.9859 7.8298C27.7126 4.69105 26.816 2.9833 25.9363 2.10468C24.3061 0.473426 21.4756 0.356426 17.9679 1.7773C14.7673 3.07105 11.2719 5.5168 8.12527 8.66455C7.81364 8.97505 7.51102 9.28893 7.21627 9.60393C6.79102 10.0562 6.81464 10.7683 7.26689 11.1936C7.48402 11.3972 7.76077 11.4984 8.03639 11.4984C8.33677 11.4984 8.63602 11.3792 8.85652 11.1429V11.1418ZM15.1216 23.5877C15.6223 23.2187 15.7291 22.5144 15.3601 22.0149C14.9923 21.5154 14.2869 21.4086 13.7874 21.7753C9.20189 25.1525 4.73227 26.4587 3.15502 24.8837C2.48789 24.2166 2.44852 23.0994 2.53289 22.2804C2.59702 21.6617 2.14702 21.1093 1.52939 21.0452C0.912895 20.9912 0.35827 21.4311 0.29527 22.0498C0.102895 23.9218 0.541644 25.4518 1.56539 26.4756C2.43952 27.3497 3.66464 27.7749 5.13727 27.7749C7.84739 27.7749 11.3934 26.3338 15.1216 23.5888V23.5877ZM8.60227 15.2616L6.46589 14.4741L5.65027 12.3096C5.48377 11.8123 4.94602 11.5434 4.44877 11.7099C4.16639 11.8044 3.94364 12.0261 3.84914 12.3096L3.04252 14.4538L0.899394 15.2616C0.402144 15.4281 0.13327 15.9658 0.29977 16.4631C0.39427 16.7454 0.615894 16.9682 0.899394 17.0627L3.06277 17.8772L3.84914 20.0124C3.94364 20.2948 4.16527 20.5176 4.44877 20.6121C4.94602 20.7786 5.48377 20.5097 5.65027 20.0124L6.44564 17.8569L8.60339 17.0627C8.88577 16.9682 9.10852 16.7466 9.20302 16.4631C9.36952 15.9658 9.09952 15.4281 8.60227 15.2616Z" fill="#DC3912"/>
</g>
<defs>
<clipPath id="clip0_69_10088">
<rect width="27" height="27" fill="white" transform="translate(0.25 0.789062)"/>
</clipPath>
</defs>
</svg>
