<svg width="18" height="19" viewBox="0 0 18 19" fill="none" xmlns="http://www.w3.org/2000/svg">
<g clip-path="url(#clip0_265_5930)">
<path d="M9.00245 0.0373535C4.02422 0.0373535 -0.0114746 4.07304 -0.0114746 9.05128C-0.0114746 14.0295 4.02422 18.0652 9.00245 18.0652C13.9807 18.0652 18.0163 14.0295 18.0163 9.05128C18.0163 4.07304 13.9807 0.0373535 9.00245 0.0373535ZM16.4062 7.91401V7.91626C15.7259 8.33989 14.9819 8.65162 14.2028 8.83949C14.0412 6.43716 13.2471 4.12033 11.901 2.12398C14.307 3.13972 16.013 5.33213 16.4062 7.91401ZM8.99999 1.53902C9.18972 1.53902 9.375 1.55326 9.56175 1.56753C11.4329 3.6222 12.5445 6.25533 12.7117 9.02927C11.6868 9.06432 10.6657 8.88819 9.71176 8.51177C9.56245 5.97574 8.35104 3.62013 6.37501 2.02351C7.21363 1.7051 8.10294 1.54095 8.99999 1.53902ZM4.86523 2.78777C5.56979 3.24722 6.19216 3.82171 6.70646 4.48726C4.45836 5.99479 2.70762 8.13496 1.6755 10.6372C1.00785 7.61244 2.27692 4.48947 4.86523 2.78777ZM2.517 12.7927C3.26569 9.92895 5.03039 7.43521 7.48201 5.77651C7.92593 6.68856 8.17933 7.68152 8.22676 8.69476C6.17996 10.2501 4.8936 12.6046 4.6905 15.1673C3.80358 14.5414 3.06217 13.7315 2.517 12.7927ZM8.99999 16.539C8.02967 16.5387 7.06871 16.3492 6.171 15.981C6.15447 15.0135 6.32562 14.0521 6.675 13.1498C9.14019 14.2441 11.8778 14.5705 14.5313 14.0865C13.1157 15.6473 11.107 16.5379 8.99999 16.539ZM7.35 11.8065C7.82542 11.0697 8.42683 10.4223 9.12676 9.89401C10.1869 10.3227 11.3192 10.5449 12.4628 10.5488C13.854 10.5486 15.2266 10.2278 16.4738 9.61124C16.4035 10.5279 16.1637 11.4236 15.7665 12.2527C12.9971 13.1093 10.0132 12.9511 7.35 11.8065Z" fill="#D0CED4"/>
</g>
<defs>
<clipPath id="clip0_265_5930">
<rect width="18" height="18" fill="white" transform="translate(0 0.0390625)"/>
</clipPath>
</defs>
</svg>
