<svg width="21" height="22" viewBox="0 0 21 22" fill="none" xmlns="http://www.w3.org/2000/svg">
<g clip-path="url(#clip0_806_87)">
<path d="M1.16111 10.8891L4.27611 13.1641L3.09311 16.8277C2.90193 17.3959 2.89951 18.0107 3.08621 18.5804C3.2729 19.1501 3.63871 19.6442 4.12911 19.9891C4.61111 20.345 5.1952 20.5357 5.79437 20.5327C6.39354 20.5297 6.9757 20.3332 7.45411 19.9725L10.5 17.7307L13.5467 19.9698C14.0279 20.3237 14.6088 20.5159 15.2061 20.5189C15.8033 20.5218 16.3861 20.3352 16.8707 19.986C17.3552 19.6368 17.7165 19.143 17.9027 18.5755C18.0889 18.008 18.0904 17.3961 17.9069 16.8277L16.7239 13.1641L19.8389 10.8891C20.3194 10.5378 20.6765 10.0436 20.8594 9.47717C21.0423 8.91074 21.0415 8.30099 20.8571 7.73505C20.6727 7.1691 20.3142 6.67589 19.8328 6.32587C19.3513 5.97586 18.7716 5.78693 18.1764 5.78608H14.35L13.1889 2.16708C13.0063 1.59742 12.6475 1.10047 12.1642 0.747891C11.6809 0.395311 11.0982 0.205322 10.5 0.205322C9.90178 0.205322 9.31903 0.395311 8.83576 0.747891C8.3525 1.10047 7.9937 1.59742 7.81111 2.16708L6.64999 5.78608H2.82711C2.23189 5.78693 1.65215 5.97586 1.17072 6.32587C0.689283 6.67589 0.330771 7.1691 0.146392 7.73505C-0.0379875 8.30099 -0.0388036 8.91074 0.14406 9.47717C0.326924 10.0436 0.684114 10.5378 1.16461 10.8891H1.16111Z" fill="#FAF8FF"/>
</g>
<defs>
<clipPath id="clip0_806_87">
<rect width="21" height="21" fill="white" transform="translate(0 0.0390625)"/>
</clipPath>
</defs>
</svg>
