<svg width="32" height="32" viewBox="0 0 32 32" fill="none" xmlns="http://www.w3.org/2000/svg">
<g clip-path="url(#clip0_845_70)">
<path d="M32 15.9999C32 13.7385 30.8533 11.7452 29.1093 10.5692C29.5107 8.5052 28.912 6.2852 27.3133 4.6852C25.7147 3.08654 23.4947 2.48787 21.4293 2.8892C20.2533 1.1452 18.26 -0.00146484 15.9986 -0.00146484C13.7373 -0.00146484 11.744 1.1452 10.568 2.8892C8.50398 2.48787 6.28265 3.08654 4.68398 4.6852C3.08531 6.28387 2.48665 8.50387 2.88798 10.5692C1.14398 11.7452 -0.00268555 13.7385 -0.00268555 15.9999C-0.00268555 18.2612 1.14398 20.2545 2.88798 21.4305C2.48665 23.4945 3.08531 25.7159 4.68398 27.3145C6.28265 28.9132 8.50265 29.5119 10.568 29.1105C11.744 30.8545 13.7373 32.0012 15.9986 32.0012C18.26 32.0012 20.2533 30.8545 21.4293 29.1105C23.4933 29.5119 25.7147 28.9132 27.3133 27.3145C28.912 25.7159 29.5107 23.4959 29.1093 21.4305C30.8533 20.2545 32 18.2612 32 15.9999ZM15.8787 20.5585C15.3626 21.0745 14.684 21.3319 14.0026 21.3319C13.3213 21.3319 12.636 21.0719 12.1146 20.5519L8.40532 16.9572L10.2626 15.0412L13.9866 18.6505L21.732 11.0492L23.604 12.9492L15.8787 20.5585Z" fill="#04CF45"/>
</g>
<defs>
<clipPath id="clip0_845_70">
<rect width="32" height="32" fill="white"/>
</clipPath>
</defs>
</svg>
