<svg width="19" height="19" viewBox="0 0 19 19" fill="none" xmlns="http://www.w3.org/2000/svg">
<path d="M15.7911 3.5233C15.6606 2.6158 14.9616 1.8643 14.0518 1.6528C13.2763 1.47205 12.4888 1.33855 11.7096 1.2538C11.3353 1.2148 10.9821 1.46155 10.8973 1.8328C10.7721 2.38405 10.2763 2.75455 9.66808 2.75605C9.05608 2.75455 8.56033 2.3833 8.43508 1.8328C8.35033 1.46155 7.99708 1.2148 7.62283 1.2538C6.84433 1.3378 6.05683 1.47205 5.28133 1.6528C4.37158 1.8643 3.67258 2.6158 3.54208 3.5233C2.97133 7.4893 2.97133 11.5108 3.54208 15.4768C3.67258 16.3843 4.37158 17.1358 5.28133 17.3473C6.05683 17.528 6.84433 17.6615 7.62358 17.7463C7.99783 17.7868 8.35108 17.5385 8.43583 17.1673C8.56108 16.616 9.05683 16.2448 9.66508 16.2433C10.2771 16.2448 10.7728 16.616 10.8981 17.1673C10.9761 17.5115 11.2828 17.7508 11.6286 17.7508C11.6556 17.7508 11.6826 17.7493 11.7096 17.7463C12.4881 17.6623 13.2756 17.528 14.0511 17.3473C14.9608 17.1358 15.6598 16.3843 15.7903 15.4768C16.3611 11.5108 16.3618 7.4893 15.7911 3.5233ZM13.7121 15.8855C13.1841 16.0085 12.6508 16.1083 12.1191 16.1825C11.6571 15.3125 10.7278 14.7448 9.66508 14.7425C8.60533 14.7455 7.67608 15.3125 7.21408 16.1825C6.68308 16.1075 6.14908 16.0085 5.62108 15.8855C5.30908 15.8128 5.07058 15.563 5.02708 15.2623C4.89283 14.3278 4.79158 13.3903 4.72258 12.4513H5.98258C6.39658 12.4513 6.73258 12.1153 6.73258 11.7013C6.73258 11.2873 6.39658 10.9513 5.98258 10.9513H4.64083C4.55458 8.54305 4.68283 6.12955 5.02708 3.7363C5.07058 3.4363 5.30908 3.1858 5.62108 3.11305C6.14908 2.99005 6.68233 2.8903 7.21408 2.81605C7.67608 3.6868 8.60533 4.2538 9.66808 4.25605C10.7278 4.2538 11.6571 3.68605 12.1191 2.81605C12.6501 2.89105 13.1841 2.99005 13.7121 3.11305C14.0241 3.1858 14.2626 3.43555 14.3061 3.7363C14.6503 6.1288 14.7793 8.5423 14.6923 10.9513H13.3506C12.9366 10.9513 12.6006 11.2873 12.6006 11.7013C12.6006 12.1153 12.9366 12.4513 13.3506 12.4513H14.6106C14.5416 13.3903 14.4403 14.3278 14.3061 15.2623C14.2626 15.5623 14.0241 15.8128 13.7121 15.8855Z" fill="#D0CED4"/>
<path d="M10.1871 10.9519H9.14539C8.73139 10.9519 8.39539 11.2879 8.39539 11.7019C8.39539 12.1159 8.73139 12.4519 9.14539 12.4519H10.1871C10.6011 12.4519 10.9371 12.1159 10.9371 11.7019C10.9371 11.2879 10.6011 10.9519 10.1871 10.9519Z" fill="#D0CED4"/>
</svg>
