<svg width="25" height="25" viewBox="0 0 25 25" fill="none" xmlns="http://www.w3.org/2000/svg">
<g clip-path="url(#clip0_652_3306)">
<path fill-rule="evenodd" clip-rule="evenodd" d="M21.3074 3.49577C19.053 1.23938 16.0558 -0.00424529 12.863 -0.00524902C6.28349 -0.00524902 0.92858 5.34866 0.925569 11.9311C0.924565 14.035 1.47461 16.0886 2.5195 17.8993L0.825195 24.0843L7.15273 22.4242C8.89621 23.3757 10.8595 23.8766 12.8569 23.8776H12.862C19.4404 23.8776 24.7963 18.5227 24.7994 11.9402C24.8014 8.75132 23.5607 5.75116 21.3074 3.49577ZM12.863 21.8611H12.8589C11.0783 21.8611 9.33284 21.3823 7.80917 20.4779L7.44682 20.2631L3.69186 21.2478L4.69459 17.5862L4.45871 17.2108C3.46501 15.6309 2.94106 13.8051 2.94207 11.9311C2.94408 6.4608 7.39563 2.01025 12.868 2.01025C15.5178 2.01025 18.0091 3.04409 19.8821 4.91906C21.755 6.79504 22.7859 9.28731 22.7849 11.9382C22.7819 17.4105 18.3313 21.8611 12.863 21.8611ZM18.3052 14.4304C18.0071 14.2809 16.5406 13.5592 16.2666 13.4598C15.9936 13.3605 15.7949 13.3103 15.5951 13.6084C15.3954 13.9065 14.8253 14.579 14.6506 14.7787C14.477 14.9775 14.3023 15.0026 14.0042 14.853C13.7061 14.7035 12.7445 14.3893 11.6053 13.3725C10.719 12.5816 10.1198 11.6049 9.94612 11.3058C9.77247 11.0067 9.92805 10.8461 10.0766 10.6976C10.2111 10.5641 10.3747 10.3493 10.5243 10.1746C10.6748 10.002 10.724 9.87751 10.8244 9.67776C10.9238 9.47902 10.8746 9.30437 10.7993 9.15482C10.724 9.00627 10.1278 7.5378 9.87987 6.94058C9.63797 6.35842 9.39206 6.43771 9.20837 6.42868C9.03473 6.41965 8.83599 6.41864 8.63624 6.41864C8.43751 6.41864 8.1143 6.49292 7.84129 6.79203C7.56827 7.09114 6.79741 7.81283 6.79741 9.28028C6.79741 10.7487 7.86638 12.167 8.01493 12.3658C8.16349 12.5645 10.1178 15.5777 13.1099 16.8695C13.8215 17.1767 14.3776 17.3603 14.8102 17.4978C15.5249 17.7247 16.1753 17.6926 16.6892 17.6163C17.2623 17.531 18.4538 16.8946 18.7027 16.198C18.9516 15.5014 18.9516 14.9032 18.8763 14.7797C18.8021 14.6543 18.6033 14.58 18.3052 14.4304Z" fill="#DC3912"/>
</g>
<defs>
<clipPath id="clip0_652_3306">
<rect width="24.0896" height="24.0896" fill="white" transform="translate(0.766602 -0.0057373)"/>
</clipPath>
</defs>
</svg>
