<svg width="25" height="26" viewBox="0 0 25 26" fill="none" xmlns="http://www.w3.org/2000/svg">
<g clip-path="url(#clip0_69_9667)">
<path fill-rule="evenodd" clip-rule="evenodd" d="M21.3074 4.45659C19.053 2.2002 16.0558 0.95657 12.863 0.955566C6.28349 0.955566 0.92858 6.30948 0.925569 12.892C0.924565 14.9958 1.47461 17.0494 2.5195 18.8602L0.825195 25.0452L7.15273 23.385C8.89621 24.3365 10.8595 24.8374 12.8569 24.8384H12.862C19.4404 24.8384 24.7963 19.4835 24.7994 12.901C24.8014 9.71213 23.5607 6.71197 21.3074 4.45659ZM12.863 22.8219H12.8589C11.0783 22.8219 9.33284 22.3431 7.80917 21.4387L7.44682 21.2239L3.69186 22.2086L4.69459 18.547L4.45871 18.1716C3.46501 16.5917 2.94106 14.7659 2.94207 12.892C2.94408 7.42161 7.39563 2.97106 12.868 2.97106C15.5178 2.97106 18.0091 4.00491 19.8821 5.87988C21.755 7.75586 22.7859 10.2481 22.7849 12.899C22.7819 18.3713 18.3313 22.8219 12.863 22.8219ZM18.3052 15.3913C18.0071 15.2417 16.5406 14.52 16.2666 14.4206C15.9936 14.3213 15.7949 14.2711 15.5951 14.5692C15.3954 14.8673 14.8253 15.5398 14.6506 15.7395C14.477 15.9383 14.3023 15.9634 14.0042 15.8138C13.7061 15.6643 12.7445 15.3501 11.6053 14.3333C10.719 13.5424 10.1198 12.5657 9.94612 12.2666C9.77247 11.9675 9.92805 11.8069 10.0766 11.6584C10.2111 11.5249 10.3747 11.3101 10.5243 11.1354C10.6748 10.9628 10.724 10.8383 10.8244 10.6386C10.9238 10.4398 10.8746 10.2652 10.7993 10.1156C10.724 9.96708 10.1278 8.49862 9.87987 7.9014C9.63797 7.31923 9.39206 7.39853 9.20837 7.38949C9.03473 7.38046 8.83599 7.37946 8.63624 7.37946C8.43751 7.37946 8.1143 7.45373 7.84129 7.75285C7.56827 8.05196 6.79741 8.77364 6.79741 10.2411C6.79741 11.7096 7.86638 13.1278 8.01493 13.3266C8.16349 13.5253 10.1178 16.5385 13.1099 17.8303C13.8215 18.1375 14.3776 18.3211 14.8102 18.4587C15.5249 18.6855 16.1753 18.6534 16.6892 18.5771C17.2623 18.4918 18.4538 17.8554 18.7027 17.1588C18.9516 16.4622 18.9516 15.864 18.8763 15.7406C18.8021 15.6151 18.6033 15.5408 18.3052 15.3913Z" fill="#DC3912"/>
</g>
<defs>
<clipPath id="clip0_69_9667">
<rect width="24.0896" height="24.0896" fill="white" transform="translate(0.766602 0.955078)"/>
</clipPath>
</defs>
</svg>
