<svg width="22" height="22" viewBox="0 0 22 22" fill="none" xmlns="http://www.w3.org/2000/svg">
<path d="M21.2493 7.89616C20.4283 6.55191 19.4718 5.24829 18.1839 4.34155C17.5661 3.90664 18.2392 4.38803 17.4435 3.83118C16.974 3.50272 17.6936 3.97082 17.3163 3.74278C17.1477 3.57418 17.0555 3.55201 16.6753 3.28217C16.2227 2.96094 16.8354 3.42242 18.1698 4.32982L16.6753 3.28217C14.9588 2.26264 12.9965 1.73126 11.0001 1.74539C5.37038 1.74539 2.16223 5.59917 0.750935 7.89616C0.314933 8.60136 0.0839844 9.41406 0.0839844 10.2432C0.0839844 11.0723 0.314933 11.885 0.750935 12.5902C1.57185 13.9344 2.60734 15.1352 3.81632 16.1448L3.86958 16.2052C4.18649 16.4089 3.89453 16.2052 4.23047 16.4961C4.5805 16.7992 0.993641 19.2164 0.992592 19.3371C0.991542 19.4578 1.01455 19.5776 1.06027 19.6893C1.10599 19.8011 1.17352 19.9026 1.2589 19.988C1.34428 20.0734 1.44581 20.1409 1.55756 20.1866C1.66932 20.2323 1.78906 20.2554 1.9098 20.2543C2.03054 20.2533 2.14986 20.2282 2.26081 20.1805C2.37175 20.1329 2.47209 20.0636 2.55597 19.9767L5.33127 17.2014C7.04562 18.2208 9.00561 18.7531 11.0001 18.7409C16.6298 18.7409 19.838 14.8872 21.2493 12.5902C21.6853 11.885 21.9162 11.0723 21.9162 10.2432C21.9162 9.41406 21.6853 8.60136 21.2493 7.89616ZM2.30045 11.6381C2.04141 11.2189 1.9042 10.7359 1.9042 10.2432C1.9042 9.75041 2.04141 9.2674 2.30045 8.84824C3.51351 6.87861 6.25516 3.56407 11.0001 3.56407C12.5098 3.55561 13.9984 3.91947 15.334 4.62345L13.5035 6.45395C12.6305 5.87434 11.5838 5.61463 10.5411 5.71888C9.49837 5.82314 8.52384 6.28494 7.78286 7.02592C7.04187 7.76691 6.58007 8.74144 6.47581 9.78416C6.37156 10.8269 6.63127 11.8735 7.21088 12.7466L5.11031 14.8471C3.99646 13.9466 3.04596 12.8611 2.30045 11.6381ZM13.7281 10.2432C13.7281 10.9667 13.4407 11.6606 12.9291 12.1722C12.4175 12.6838 11.7236 12.9712 11.0001 12.9712C10.595 12.9696 10.1955 12.8763 9.83159 12.6984L13.4553 9.07466C13.6333 9.43858 13.7265 9.83806 13.7281 10.2432ZM8.27208 10.2432C8.27208 9.51965 8.55949 8.82577 9.0711 8.31416C9.5827 7.80256 10.2766 7.51515 11.0001 7.51515C11.4052 7.51672 11.8047 7.60998 12.1686 7.78795L8.54488 11.4117C8.36691 11.0477 8.27365 10.6483 8.27208 10.2432ZM19.6997 11.6381C18.4867 13.6077 15.745 16.9223 11.0001 16.9223C9.49034 16.9307 8.00179 16.5669 6.66618 15.8629L8.49668 14.0324C9.36971 14.612 10.4164 14.8717 11.4591 14.7674C12.5018 14.6632 13.4763 14.2014 14.2173 13.4604C14.9583 12.7194 15.4201 11.7449 15.5244 10.7022C15.6286 9.65945 15.3689 8.61278 14.7893 7.73975L16.8899 5.63918C18.0037 6.53968 18.9542 7.62522 19.6997 8.84824C19.9588 9.2674 20.096 9.75041 20.096 10.2432C20.096 10.7359 19.9588 11.2189 19.6997 11.6381Z" fill="white"/>
</svg>
