<svg width="33" height="33" viewBox="0 0 33 33" fill="none" xmlns="http://www.w3.org/2000/svg">
<g clip-path="url(#clip0_1_3070)">
<path d="M5.14683 5C5.14683 3.52667 6.34016 2.33333 7.81349 2.33333C9.28683 2.33333 10.4802 3.52667 10.4802 5C10.4802 6.47333 9.28683 7.66667 7.81349 7.66667C6.34016 7.66667 5.14683 6.47333 5.14683 5ZM17.1468 7.66667C18.9882 7.66667 20.4802 6.17467 20.4802 4.33333C20.4802 2.492 18.9882 1 17.1468 1C15.3055 1 13.8135 2.492 13.8135 4.33333C13.8135 6.17467 15.3055 7.66667 17.1468 7.66667ZM26.4802 7.66667C27.9535 7.66667 29.1468 6.47333 29.1468 5C29.1468 3.52667 27.9535 2.33333 26.4802 2.33333C25.0068 2.33333 23.8135 3.52667 23.8135 5C23.8135 6.47333 25.0068 7.66667 26.4802 7.66667ZM17.1482 33C8.81216 33 1.96283 26.7453 1.21483 18.4533C1.14949 17.72 1.68949 17.072 2.42283 17.0053C3.17349 16.9413 3.80549 17.48 3.87083 18.2133C3.95749 19.18 4.15483 20.1093 4.42949 21H9.01616C8.80416 20.1787 8.63883 19.3347 8.55349 18.4627C8.48149 17.7293 9.01883 17.0773 9.75083 17.0067C10.4882 16.94 11.1362 17.472 11.2068 18.204C11.3002 19.1667 11.5095 20.1 11.7855 21H22.5108C22.7868 20.1 22.9962 19.1667 23.0895 18.204C23.1602 17.4707 23.8095 16.9387 24.5455 17.0067C25.2788 17.0773 25.8148 17.7293 25.7428 18.4627C25.6588 19.3347 25.4922 20.1787 25.2802 21H29.8668C30.1428 20.1093 30.3388 19.18 30.4255 18.2133C30.4922 17.48 31.1268 16.9387 31.8735 17.0053C32.6068 17.072 33.1482 17.72 33.0815 18.4533C32.3335 26.7453 25.4842 32.9987 17.1482 33ZM12.8508 23.6667C14.2148 26.4387 16.0628 28.6307 17.1455 29.7813C18.2295 28.6307 20.0762 26.4387 21.4402 23.6667H12.8508ZM13.6868 29.876C12.4282 28.3173 10.9708 26.184 9.91483 23.6667H5.58949C7.33349 26.7107 10.2295 28.9627 13.6868 29.876ZM28.7042 23.6667H24.3788C23.3228 26.1853 21.8655 28.3173 20.6068 29.876C24.0642 28.9627 26.9602 26.7107 28.7042 23.6667ZM12.6788 14.2493C13.3695 14.5067 14.1375 14.16 14.3962 13.468C14.8002 12.3907 15.9055 11.6667 17.1468 11.6667C18.3882 11.6667 19.4948 12.3907 19.8975 13.468C20.1548 14.1667 20.9428 14.504 21.6148 14.2493C22.3042 13.9907 22.6535 13.2213 22.3948 12.5333C21.6028 10.42 19.4935 9.00133 17.1455 9.00133C14.7975 9.00133 12.6882 10.42 11.8962 12.5333C11.6375 13.2227 11.9868 13.9907 12.6762 14.2493H12.6788ZM25.6162 9.064C24.8882 9.17333 24.3855 9.852 24.4948 10.5813C24.6042 11.3093 25.2802 11.8013 26.0108 11.7027C27.3588 11.5027 28.7762 12.2533 29.2322 13.468C29.4895 14.1667 30.2775 14.504 30.9495 14.2493C31.6388 13.9907 31.9882 13.2213 31.7295 12.5333C30.9375 10.42 28.8282 9.00133 26.4802 9.00133C26.1868 9.00133 25.8975 9.02267 25.6162 9.064ZM3.34549 14.2493C4.01749 14.5053 4.80416 14.1667 5.06283 13.468C5.51749 12.252 6.93616 11.496 8.28416 11.7027C9.01216 11.8027 9.69083 11.3093 9.80016 10.5813C9.90949 9.852 9.40816 9.17333 8.67883 9.064C8.39749 9.02267 8.10816 9 7.81483 9C5.46683 9 3.35749 10.4187 2.56549 12.532C2.30683 13.2213 2.65616 13.9893 3.34549 14.248V14.2493Z" fill="#C12500"/>
</g>
<defs>
<clipPath id="clip0_1_3070">
<rect width="32" height="32" fill="white" transform="translate(0.646729 0.960938)"/>
</clipPath>
</defs>
</svg>
