<svg width="32" height="32" viewBox="0 0 32 32" fill="none" xmlns="http://www.w3.org/2000/svg">
<path d="M31.9609 16.0186C31.9609 24.6221 24.9864 31.5967 16.3828 31.5967C7.77925 31.5967 0.804688 24.6221 0.804688 16.0186C0.804688 7.41499 7.77925 0.44043 16.3828 0.44043C24.9864 0.44043 31.9609 7.41499 31.9609 16.0186Z" fill="white"/>
<path d="M16.3828 29.3658C14.5419 29.3658 12.8052 28.5717 11.6187 27.1868C9.87515 27.3826 8.07841 26.7364 6.77642 25.4572C5.47557 24.1781 4.81892 22.4095 4.97629 20.6054C3.60524 19.5331 2.79688 17.8268 2.79688 16.0182C2.79688 14.2096 3.60524 12.5034 5.01591 11.3377C4.81778 9.62809 5.47444 7.85953 6.77642 6.58039C8.07841 5.30124 9.87515 4.65277 11.7138 4.81183C12.8052 3.46595 14.5419 2.67066 16.3828 2.67066C18.2237 2.67066 19.9604 3.46484 21.1469 4.84965C22.8927 4.65722 24.6872 5.30013 25.9892 6.57928C27.2901 7.85842 27.9467 9.62698 27.7893 11.4311C29.1604 12.5034 29.9688 14.2096 29.9688 16.0182C29.9688 17.8268 29.1604 19.5331 27.7497 20.6988C27.9478 22.4084 27.2912 24.177 25.9892 25.4561C24.6861 26.7352 22.8859 27.3759 21.0518 27.2247C19.9604 28.5705 18.2237 29.3658 16.3828 29.3658ZM11.7104 25.0012C12.3455 25.0012 12.9342 25.2692 13.3498 25.7531C14.106 26.6351 15.211 27.1412 16.3828 27.1412C17.5546 27.1412 18.6596 26.6351 19.4159 25.7531C19.8721 25.2203 20.5367 24.9511 21.2454 25.0078C22.4161 25.1046 23.5596 24.6964 24.3883 23.8822C25.2159 23.0691 25.6337 21.9435 25.5341 20.7945C25.4729 20.1004 25.7492 19.4452 26.2926 18.9959C27.1893 18.254 27.7044 17.1672 27.7044 16.0171C27.7044 14.867 27.1893 13.7803 26.2926 13.0384C25.7503 12.5901 25.4729 11.9339 25.5341 11.2398C25.6337 10.0908 25.2171 8.96516 24.3883 8.15207C23.5596 7.33898 22.4093 6.93521 21.2466 7.02642C20.5378 7.08871 19.8721 6.81397 19.4159 6.28229C18.6596 5.40024 17.5546 4.89414 16.3828 4.89414C15.211 4.89414 14.106 5.40024 13.3498 6.28229C12.8924 6.81508 12.2255 7.08204 11.5202 7.02753C10.3439 6.92743 9.20604 7.33898 8.3773 8.15318C7.54969 8.96627 7.13192 10.0919 7.23155 11.2409C7.29269 11.935 7.01644 12.5901 6.473 13.0395C5.57633 13.7814 5.0612 14.8681 5.0612 16.0182C5.0612 17.1684 5.57633 18.2551 6.473 18.997C7.01531 19.4452 7.29269 20.1015 7.23155 20.7956C7.13192 21.9446 7.54856 23.0702 8.3773 23.8833C9.20604 24.6964 10.362 25.1013 11.519 25.009C11.5836 25.0034 11.647 25.0012 11.7104 25.0012ZM17.2897 19.5053L22.655 14.4243C23.1045 13.9983 23.118 13.2931 22.6833 12.8515C22.2497 12.4099 21.533 12.3966 21.0824 12.8226L15.7024 17.9181C15.2597 18.353 14.5453 18.353 14.0721 17.8902L11.493 15.5355C11.0379 15.1184 10.3201 15.1429 9.89326 15.5933C9.46757 16.0427 9.49361 16.7468 9.95214 17.165L12.5018 19.492C13.1652 20.1438 14.0381 20.4697 14.9087 20.4697C15.7748 20.4697 16.6364 20.1482 17.2908 19.5064L17.2897 19.5053Z" fill="#DC3912"/>
</svg>
