<svg width="33" height="33" viewBox="0 0 33 33" fill="none" xmlns="http://www.w3.org/2000/svg">
<g clip-path="url(#clip0_1_3099)">
<path d="M25.9214 3.85365L17.568 1.06832C17.2945 0.977226 16.9989 0.977226 16.7254 1.06832L8.37202 3.85365C7.0439 4.29483 5.88858 5.14333 5.07022 6.2786C4.25185 7.41387 3.81207 8.77817 3.81336 10.1777V17.0003C3.81336 27.0843 16.08 32.6537 16.6054 32.8857C16.7758 32.9614 16.9602 33.0005 17.1467 33.0005C17.3332 33.0005 17.5176 32.9614 17.688 32.8857C18.2134 32.6537 30.48 27.0843 30.48 17.0003V10.1777C30.4813 8.77817 30.0415 7.41387 29.2232 6.2786C28.4048 5.14333 27.2495 4.29483 25.9214 3.85365ZM27.8134 17.0003C27.8134 24.2737 19.388 29.0443 17.1467 30.1857C14.9027 29.0483 6.48002 24.2923 6.48002 17.0003V10.1777C6.4801 9.33802 6.74439 8.51971 7.23544 7.83864C7.7265 7.15758 8.41942 6.64831 9.21602 6.38299L17.1467 3.73899L25.0774 6.38299C25.874 6.64831 26.5669 7.15758 27.0579 7.83864C27.549 8.51971 27.8133 9.33802 27.8134 10.1777V17.0003Z" fill="#C12500"/>
<path d="M21.5468 12.0668L15.9628 17.6668L12.9708 14.5468C12.8507 14.4155 12.7056 14.3096 12.5439 14.2352C12.3823 14.1609 12.2074 14.1197 12.0296 14.114C11.8517 14.1083 11.6746 14.1382 11.5085 14.2021C11.3424 14.2659 11.1908 14.3623 11.0626 14.4857C10.9344 14.609 10.8321 14.7567 10.7619 14.9202C10.6916 15.0837 10.6548 15.2595 10.6536 15.4374C10.6524 15.6153 10.6868 15.7917 10.7547 15.9561C10.8227 16.1205 10.9229 16.2697 11.0494 16.3948L14.1241 19.5948C14.3534 19.8424 14.6306 20.041 14.9388 20.1785C15.247 20.316 15.58 20.3896 15.9174 20.3948H15.9614C16.2922 20.3959 16.6199 20.3312 16.9254 20.2047C17.231 20.0781 17.5084 19.8921 17.7414 19.6574L23.4374 13.9614C23.5619 13.8373 23.6606 13.6899 23.728 13.5276C23.7954 13.3653 23.8302 13.1913 23.8304 13.0155C23.8306 12.8398 23.7962 12.6657 23.7291 12.5033C23.662 12.3408 23.5636 12.1932 23.4394 12.0688C23.3153 11.9444 23.1679 11.8456 23.0056 11.7782C22.8433 11.7108 22.6693 11.676 22.4935 11.6758C22.3178 11.6756 22.1437 11.71 21.9813 11.7771C21.8188 11.8442 21.6712 11.9426 21.5468 12.0668Z" fill="#C12500"/>
</g>
<defs>
<clipPath id="clip0_1_3099">
<rect width="32" height="32" fill="white" transform="translate(0.646729 0.960938)"/>
</clipPath>
</defs>
</svg>
