<svg width="33" height="33" viewBox="0 0 33 33" fill="none" xmlns="http://www.w3.org/2000/svg">
<g clip-path="url(#clip0_1_3092)">
<path d="M27.8134 6.40291C24.6919 3.64816 20.6195 2.2186 16.4611 2.41775C12.3026 2.6169 8.38553 4.42908 5.54154 7.46951C2.69756 10.5099 1.15066 14.5392 1.2293 18.7017C1.30794 22.8641 3.00593 26.8321 5.96272 29.7629C7.21127 30.9872 8.89139 31.6712 10.6401 31.6669H23.6627C25.3185 31.6894 26.9196 31.0746 28.1347 29.9496C29.7333 28.4235 30.9999 26.584 31.8554 24.5462C32.7109 22.5084 33.1369 20.3161 33.1067 18.1062C33.0766 15.8963 32.5909 13.7164 31.6801 11.7027C30.7694 9.68902 29.453 7.88483 27.8134 6.40291ZM26.3041 28.0122C25.5821 28.6668 24.637 29.0202 23.6627 29.0002H10.6401C9.58835 29.0036 8.57764 28.5926 7.82672 27.8562C5.92472 25.9972 4.62216 23.6118 4.08647 21.0066C3.55078 18.4015 3.80644 15.6957 4.82058 13.237C5.83473 10.7783 7.56101 8.67908 9.77754 7.20916C11.9941 5.73925 14.5996 4.96581 17.2591 4.98826C19.9187 5.01071 22.5107 5.82803 24.7021 7.33517C26.8935 8.8423 28.5841 10.9704 29.5566 13.4458C30.5291 15.9213 30.739 18.6311 30.1594 21.2268C29.5798 23.8225 28.2372 26.1856 26.3041 28.0122ZM26.5707 18.3202C26.3974 18.3451 26.2208 18.3356 26.0511 18.2923C25.8815 18.2489 25.722 18.1726 25.5818 18.0676C25.4417 17.9626 25.3236 17.831 25.2343 17.6803C25.145 17.5297 25.0862 17.3629 25.0614 17.1896C24.7806 15.2889 23.8276 13.5519 22.3754 12.2939C20.9232 11.0359 19.068 10.3404 17.1467 10.3336C10.1227 10.2002 6.42672 19.2482 11.5561 24.0469C11.8089 24.2944 11.953 24.6323 11.9568 24.9861C11.9605 25.3399 11.8236 25.6807 11.5761 25.9336C11.3285 26.1864 10.9907 26.3306 10.6369 26.3343C10.283 26.3381 9.94223 26.2011 9.68939 25.9536C2.86272 19.4642 7.73206 7.55357 17.1467 7.66691C19.7094 7.67626 22.1839 8.60394 24.1211 10.2816C26.0583 11.9593 27.33 14.2758 27.7054 16.8109C27.7303 16.9844 27.7207 17.161 27.6773 17.3307C27.6338 17.5005 27.5574 17.66 27.4522 17.8002C27.3471 17.9404 27.2154 18.0585 27.0646 18.1477C26.9138 18.2369 26.7469 18.2956 26.5734 18.3202H26.5707ZM26.9707 22.6456C26.9004 22.806 26.7991 22.951 26.6727 23.0723C26.5463 23.1935 26.3973 23.2887 26.2341 23.3524C26.0709 23.416 25.8967 23.4469 25.7216 23.4432C25.5465 23.4395 25.3738 23.4014 25.2134 23.3309L18.7241 20.4829C18.2517 20.8315 17.6774 21.0145 17.0905 21.0034C16.5035 20.9924 15.9365 20.7879 15.4776 20.4218C15.0187 20.0557 14.6934 19.5483 14.5522 18.9785C14.4111 18.4086 14.4619 17.8081 14.6968 17.2701C14.9318 16.732 15.3377 16.2866 15.8516 16.0028C16.3656 15.719 16.9588 15.6128 17.5393 15.7005C18.1198 15.7883 18.6551 16.0652 19.0622 16.4882C19.4692 16.9113 19.7253 17.4568 19.7907 18.0402L26.2801 20.8882C26.4411 20.958 26.5867 21.0588 26.7087 21.1849C26.8307 21.311 26.9266 21.46 26.9908 21.6233C27.0551 21.7865 27.0866 21.9609 27.0833 22.1363C27.0801 22.3117 27.041 22.4848 26.9707 22.6456Z" fill="#C12500"/>
</g>
<defs>
<clipPath id="clip0_1_3092">
<rect width="32" height="32" fill="white" transform="translate(0.646729 0.960938)"/>
</clipPath>
</defs>
</svg>
